<svg width="452" height="77" viewBox="0 0 452 77" fill="none" xmlns="http://www.w3.org/2000/svg">
<path d="M392.916 65.9511V25.9194H403.066V36.313L400.874 38.0182C401.253 35.474 401.902 33.3628 402.822 31.6846C403.743 30.0065 404.825 28.7073 406.07 27.787C407.37 26.8126 408.696 26.136 410.049 25.757C411.457 25.324 412.837 25.1074 414.19 25.1074C416.302 25.1074 418.305 25.5134 420.199 26.3254C422.094 27.0833 423.745 28.4096 425.152 30.3042C426.56 32.1989 427.534 34.7973 428.076 38.0994L422.067 40.2918C422.879 36.5025 424.043 33.4981 425.558 31.2786C427.128 29.0592 428.915 27.4893 430.918 26.569C432.975 25.5946 435.14 25.1074 437.414 25.1074C440.824 25.1074 443.585 25.8653 445.696 27.381C447.807 28.8968 449.35 30.8456 450.324 33.2274C451.353 35.5552 451.867 38.0453 451.867 40.6978V65.9511H441.798V43.1338C441.798 41.1309 441.528 39.4528 440.986 38.0994C440.499 36.692 439.768 35.6364 438.794 34.9326C437.82 34.2289 436.548 33.877 434.978 33.877C433.354 33.877 431.973 34.3101 430.836 35.1762C429.7 36.0424 428.834 37.3416 428.238 39.0738C427.697 40.8061 427.426 43.0256 427.426 45.7322V65.9511H417.357V42.9714C417.357 39.94 416.789 37.6664 415.652 36.1506C414.569 34.6349 412.972 33.877 410.861 33.877C409.183 33.877 407.749 34.3101 406.558 35.1762C405.421 36.0424 404.555 37.3416 403.959 39.0738C403.364 40.8061 403.066 43.0256 403.066 45.7322V65.9511H392.916Z" fill="white"/>
<path d="M372.932 65.9505V25.9188H383.001V65.9505H372.932ZM372.607 19.7476V9.354H383.407V19.7476H372.607Z" fill="white"/>
<path d="M338.436 65.9511V25.9194H348.586V36.8002L347.043 36.9626C347.205 34.6349 347.909 32.5778 349.154 30.7914C350.399 29.005 351.915 27.6246 353.701 26.6502C355.542 25.6217 357.409 25.1074 359.304 25.1074C360.657 25.1074 361.929 25.2969 363.12 25.6758C364.365 26.0006 365.638 26.569 366.937 27.381L362.065 36.4754C361.469 36.1506 360.711 35.8529 359.791 35.5822C358.871 35.3116 357.951 35.1762 357.03 35.1762C355.948 35.1762 354.892 35.3657 353.864 35.7446C352.889 36.1236 351.996 36.719 351.184 37.531C350.426 38.343 349.804 39.4257 349.316 40.779C349.1 41.5369 348.91 42.5113 348.748 43.7022C348.64 44.839 348.586 46.5172 348.586 48.7366V65.9511H338.436Z" fill="white"/>
<path d="M306.735 66.7631C303.487 66.7631 300.753 66.1135 298.534 64.8143C296.369 63.5151 294.745 61.6745 293.662 59.2927C292.633 56.9108 292.119 54.1229 292.119 50.9291V25.9194H302.188V48.4119C302.188 50.2524 302.404 51.9035 302.838 53.3651C303.271 54.7725 304.028 55.9093 305.111 56.7755C306.248 57.5875 307.791 57.9935 309.74 57.9935C312.121 57.9935 313.908 57.3168 315.099 55.9635C316.344 54.6101 317.183 52.7425 317.616 50.3607C318.103 47.9247 318.347 45.0827 318.347 41.8347V25.9194H328.416V65.9511H318.347V57.2627L319.727 58.0747C318.536 61.1603 316.777 63.3797 314.449 64.7331C312.121 66.0864 309.55 66.7631 306.735 66.7631Z" fill="white"/>
<path d="M278.053 66.7632C275.888 66.7632 273.885 66.3572 272.044 65.5452C270.204 64.7332 268.715 63.4069 267.578 61.5664C266.496 59.7258 265.954 57.2628 265.954 54.1772V16.5815L276.186 11.1411V51.4164C276.186 53.7441 276.483 55.5034 277.079 56.6944C277.729 57.8853 278.974 58.4808 280.814 58.4808C281.355 58.4808 281.951 58.4266 282.601 58.3184C283.304 58.2101 284.062 58.0477 284.874 57.8312V65.5452C283.737 65.9782 282.601 66.276 281.464 66.4384C280.327 66.6549 279.19 66.7632 278.053 66.7632ZM258.646 33.7959V25.9195H284.874V33.7959H258.646Z" fill="white"/>
<path d="M216.953 65.9511V25.9194H227.103V35.0138L225.479 35.1762C226.183 32.7402 227.211 30.7914 228.565 29.3298C229.918 27.8682 231.488 26.8126 233.274 26.163C235.061 25.4593 236.901 25.1074 238.796 25.1074C243.343 25.1074 246.889 26.4066 249.433 29.005C252.032 31.5493 253.331 35.1492 253.331 39.8046V65.9511H243.181V43.5398C243.181 40.1836 242.585 37.7476 241.394 36.2318C240.203 34.662 238.336 33.877 235.792 33.877C233.843 33.877 232.219 34.3372 230.92 35.2574C229.674 36.1236 228.727 37.504 228.078 39.3986C227.428 41.2933 227.103 43.7564 227.103 46.7878V65.9511H216.953Z" fill="white"/>
<path d="M190.886 66.7631C187.421 66.7631 184.444 66.1947 181.954 65.0579C179.464 63.9211 177.407 62.4053 175.783 60.5107C174.213 58.5619 173.049 56.3695 172.291 53.9335C171.533 51.4433 171.154 48.8449 171.154 46.1382C171.154 43.5398 171.533 40.9956 172.291 38.5054C173.049 36.0153 174.186 33.7688 175.701 31.7658C177.217 29.7629 179.166 28.166 181.548 26.975C183.984 25.73 186.88 25.1074 190.236 25.1074C193.376 25.1074 196.11 25.6488 198.438 26.7314C200.765 27.76 202.687 29.2216 204.203 31.1162C205.718 32.9568 206.855 35.1221 207.613 37.6122C208.425 40.1024 208.831 42.7549 208.831 45.5698C208.831 45.9488 208.804 46.4901 208.75 47.1938C208.75 47.8434 208.696 48.5472 208.588 49.3051H181.223C181.494 52.1741 182.549 54.3395 184.39 55.8011C186.285 57.2627 188.639 57.9935 191.454 57.9935C193.511 57.9935 195.514 57.6416 197.463 56.9379C199.412 56.18 201.144 55.1244 202.66 53.7711L207.694 60.5919C205.8 62.0535 204.013 63.2444 202.335 64.1647C200.657 65.0849 198.898 65.7345 197.057 66.1135C195.271 66.5465 193.214 66.7631 190.886 66.7631ZM198.844 44.2706C198.952 43.8376 199.033 43.4045 199.087 42.9714C199.195 42.5384 199.25 42.1324 199.25 41.7534C199.25 40.6166 199.033 39.561 198.6 38.5866C198.167 37.5581 197.571 36.6649 196.814 35.907C196.056 35.1492 195.135 34.5808 194.053 34.2018C193.024 33.7688 191.833 33.5522 190.48 33.5522C188.477 33.5522 186.799 33.9582 185.446 34.7702C184.092 35.5822 183.064 36.6378 182.36 37.937C181.71 39.1821 181.304 40.4813 181.142 41.8346H202.254L198.844 44.2706Z" fill="white"/>
<path d="M140.789 67.25C135.43 67.25 130.693 66.005 126.579 63.5148C122.519 61.0247 119.352 57.5602 117.078 53.1212C114.805 48.6823 113.668 43.5126 113.668 37.612C113.668 31.7115 114.805 26.5688 117.078 22.184C119.352 17.7451 122.519 14.2805 126.579 11.7904C130.693 9.30024 135.43 8.05518 140.789 8.05518C146.798 8.05518 151.967 9.57091 156.298 12.6024C160.683 15.5797 163.823 19.6939 165.717 24.9448L155.811 28.5988C154.62 25.2967 152.725 22.7253 150.127 20.8848C147.583 19.0443 144.47 18.124 140.789 18.124C137.433 18.124 134.482 18.9089 131.938 20.4788C129.448 22.0487 127.526 24.2952 126.173 27.2184C124.874 30.0875 124.224 33.552 124.224 37.612C124.224 41.672 124.874 45.1636 126.173 48.0868C127.526 51.01 129.448 53.2566 131.938 54.8264C134.482 56.3963 137.433 57.1812 140.789 57.1812C144.47 57.1812 147.583 56.261 150.127 54.4204C152.725 52.5799 154.62 50.0086 155.811 46.7064L165.717 50.2792C163.823 55.5302 160.683 59.6714 156.298 62.7028C151.967 65.7343 146.798 67.25 140.789 67.25Z" fill="white"/>
<path d="M5 44.2659C2.23857 44.2659 0 42.0273 0 39.2659V36.8108C0 34.0494 2.23858 31.8108 5 31.8108H12.6805C12.9784 31.8108 13.2757 31.8374 13.5689 31.8904L24.0675 33.7859C24.7518 33.9095 25.4273 33.5294 25.6769 32.8804C25.918 32.2535 25.6967 31.5432 25.1422 31.1643L16.3932 25.1859C16.1247 25.0024 15.8747 24.7932 15.6469 24.5611L10.2045 19.0198C8.28191 17.0622 8.29608 13.9209 10.2363 11.9807L11.9809 10.2362C13.9211 8.29601 17.0623 8.28186 19.0199 10.2045L24.5613 15.6469C24.7933 15.8747 25.0026 16.1247 25.186 16.3932L31.1643 25.1421C31.5432 25.6967 32.2535 25.918 32.8804 25.6769C33.5294 25.4273 33.9095 24.7518 33.7859 24.0675L31.8904 13.5689C31.8374 13.2757 31.8108 12.9784 31.8108 12.6805V5C31.8108 2.23857 34.0494 0 36.8108 0H39.2659C42.0273 0 44.2659 2.23858 44.2659 5V12.6805C44.2659 12.9784 44.2393 13.2757 44.1863 13.5689L42.2907 24.0674C42.1672 24.7518 42.5473 25.4273 43.1963 25.6769C43.8232 25.918 44.5335 25.6967 44.9124 25.1422L50.8908 16.3932C51.0743 16.1247 51.2835 15.8747 51.5155 15.6469L57.0569 10.2045C59.0145 8.28186 62.1558 8.296 64.096 10.2362L65.8405 11.9807C67.7808 13.9209 67.7949 17.0622 65.8722 19.0198L60.4298 24.5612C60.2019 24.7932 59.952 25.0024 59.6835 25.1858L50.9347 31.1643C50.3802 31.5432 50.1588 32.2535 50.3999 32.8804C50.6495 33.5294 51.3251 33.9095 52.0094 33.7859L62.508 31.8904C62.8011 31.8374 63.0985 31.8108 63.3964 31.8108H71.0769C73.8383 31.8108 76.0769 34.0494 76.0769 36.8108V39.2659C76.0769 42.0273 73.8383 44.2659 71.0769 44.2659H63.3964C63.0985 44.2659 62.8011 44.2393 62.508 44.1863L52.0094 42.2907C51.3251 42.1672 50.6495 42.5473 50.3999 43.1963C50.1588 43.8232 50.3802 44.5335 50.9347 44.9124L59.6835 50.8909C59.952 51.0743 60.2019 51.2835 60.4298 51.5155L65.8723 57.0569C67.7949 59.0145 67.7808 62.1558 65.8406 64.096L64.096 65.8406C62.1558 67.7808 59.0145 67.7949 57.0569 65.8723L51.5155 60.4298C51.2835 60.2019 51.0743 59.952 50.8908 59.6835L44.9124 50.9347C44.5335 50.3802 43.8232 50.1588 43.1963 50.3999C42.5473 50.6495 42.1672 51.3251 42.2907 52.0094L44.1863 62.508C44.2393 62.8011 44.2659 63.0985 44.2659 63.3964V71.0769C44.2659 73.8383 42.0273 76.0769 39.2659 76.0769H36.8108C34.0494 76.0769 31.8108 73.8383 31.8108 71.0769V63.3964C31.8108 63.0985 31.8374 62.8011 31.8904 62.508L33.7859 52.0094C33.9095 51.3251 33.5294 50.6495 32.8804 50.3999C32.2535 50.1588 31.5432 50.3802 31.1643 50.9347L25.186 59.6835C25.0026 59.952 24.7933 60.2019 24.5613 60.4298L19.02 65.8723C17.0624 67.7949 13.9211 67.7808 11.9809 65.8406L10.2362 64.096C8.29604 62.1558 8.28189 59.0145 10.2045 57.0569L15.6469 51.5155C15.8748 51.2835 16.1247 51.0743 16.3932 50.8908L25.1422 44.9124C25.6967 44.5335 25.918 43.8232 25.6769 43.1963C25.4273 42.5473 24.7518 42.1672 24.0675 42.2907L13.5689 44.1863C13.2757 44.2393 12.9784 44.2659 12.6805 44.2659H5Z" fill="white"/>
</svg>
