<svg width="109" height="109" viewBox="0 0 109 109" fill="none" xmlns="http://www.w3.org/2000/svg">
<rect width="109" height="109" fill="white"/>
<path d="M61.0626 91.9374C55.7131 86.5879 55.7131 77.9147 61.0626 72.5652L72.7667 60.8611C78.1162 55.5116 86.7894 55.5116 92.1389 60.8611L61.0626 91.9374Z" fill="black"/>
<path d="M47.1391 15.861C52.4886 21.2105 52.4886 29.8837 47.1391 35.2333L35.435 46.9373C30.0855 52.2868 21.4122 52.2868 16.0627 46.9373L47.1391 15.861Z" fill="black"/>
<path d="M16.0624 61.0628C21.4119 55.7133 30.0852 55.7133 35.4347 61.0628L46.9369 72.5651C52.2865 77.9146 52.2865 86.5878 46.9369 91.9373L16.0624 61.0628Z" fill="black"/>
<path d="M91.9371 46.937C86.5876 52.2865 77.9144 52.2865 72.5649 46.937L61.0626 35.4347C55.7131 30.0852 55.7131 21.412 61.0626 16.0625L91.9371 46.937Z" fill="black"/>
<circle cx="91.5" cy="92.5" r="12.5" fill="#00CCFF"/>
</svg>
