<svg width="421" height="90" viewBox="0 0 421 90" fill="none" xmlns="http://www.w3.org/2000/svg">
<path d="M366.806 66.5242V27.0147H374.188V33.4453H374.677C375.5 31.2675 376.846 29.5698 378.716 28.3523C380.585 27.1176 382.823 26.5003 385.429 26.5003C388.07 26.5003 390.282 27.1176 392.065 28.3523C393.866 29.587 395.195 31.2847 396.052 33.4453H396.464C397.407 31.3361 398.908 29.6556 400.965 28.4038C403.023 27.1348 405.475 26.5003 408.322 26.5003C411.906 26.5003 414.83 27.6235 417.093 29.8699C419.374 32.1163 420.514 35.5031 420.514 40.0302V66.5242H412.823V40.7505C412.823 38.0753 412.095 36.1376 410.637 34.9372C409.179 33.7368 407.439 33.1367 405.415 33.1367C402.912 33.1367 400.965 33.9083 399.576 35.4517C398.187 36.9779 397.493 38.9413 397.493 41.3421V66.5242H389.828V40.2617C389.828 38.1182 389.159 36.3948 387.821 35.0916C386.484 33.7883 384.743 33.1367 382.6 33.1367C381.142 33.1367 379.796 33.5225 378.561 34.2942C377.344 35.0487 376.358 36.1033 375.603 37.458C374.866 38.8127 374.497 40.3818 374.497 42.1652V66.5242H366.806Z" fill="#EEF8FF"/>
<path d="M348.769 66.5242V27.0147H356.46V66.5242H348.769ZM352.653 20.9185C351.315 20.9185 350.167 20.4727 349.206 19.581C348.263 18.6721 347.792 17.5918 347.792 16.3399C347.792 15.071 348.263 13.9906 349.206 13.0989C350.167 12.1901 351.315 11.7357 352.653 11.7357C353.991 11.7357 355.131 12.1901 356.074 13.0989C357.034 13.9906 357.515 15.071 357.515 16.3399C357.515 17.5918 357.034 18.6721 356.074 19.581C355.131 20.4727 353.991 20.9185 352.653 20.9185Z" fill="#EEF8FF"/>
<path d="M320.97 66.5242V27.0148H328.404V33.291H328.816C329.536 31.1646 330.805 29.4927 332.622 28.2752C334.457 27.0405 336.532 26.4232 338.847 26.4232C339.327 26.4232 339.893 26.4403 340.545 26.4746C341.214 26.5089 341.737 26.5518 342.114 26.6032V33.9598C341.805 33.8741 341.257 33.7797 340.468 33.6768C339.679 33.5568 338.89 33.4968 338.101 33.4968C336.284 33.4968 334.663 33.8826 333.24 34.6543C331.834 35.4088 330.719 36.4634 329.896 37.8181C329.073 39.1557 328.661 40.6819 328.661 42.3967V66.5242H320.97Z" fill="#EEF8FF"/>
<path d="M302.918 50.1391V27.0147H310.635V66.5242H303.073V59.682H302.661C301.752 61.7913 300.295 63.549 298.288 64.9551C296.299 66.3441 293.821 67.0386 290.855 67.0386C288.317 67.0386 286.07 66.4813 284.115 65.3667C282.178 64.2349 280.651 62.5629 279.537 60.3508C278.439 58.1387 277.891 55.4036 277.891 52.1454V27.0147H285.582V51.2194C285.582 53.9117 286.328 56.0552 287.819 57.65C289.311 59.2448 291.249 60.0421 293.633 60.0421C295.073 60.0421 296.505 59.682 297.928 58.9618C299.369 58.2416 300.561 57.1527 301.504 55.6951C302.464 54.2375 302.936 52.3855 302.918 50.1391Z" fill="#EEF8FF"/>
<path d="M269.384 27.0147V33.188H247.803V27.0147H269.384ZM253.59 17.5489H261.281V54.9234C261.281 56.4153 261.504 57.5385 261.95 58.293C262.396 59.0304 262.97 59.5363 263.673 59.8106C264.394 60.0679 265.174 60.1965 266.014 60.1965C266.631 60.1965 267.172 60.1536 267.635 60.0679C268.098 59.9821 268.458 59.9135 268.715 59.8621L270.104 66.2155C269.658 66.387 269.024 66.5585 268.201 66.7299C267.377 66.9186 266.349 67.0215 265.114 67.0386C263.09 67.0729 261.204 66.7128 259.455 65.9583C257.706 65.2037 256.291 64.0377 255.211 62.46C254.13 60.8824 253.59 58.9018 253.59 56.5182V17.5489Z" fill="#EEF8FF"/>
<path d="M215.342 43.0655V66.5242H207.651V27.0147H215.034V33.4453H215.522C216.431 31.3532 217.855 29.6727 219.792 28.4038C221.747 27.1348 224.208 26.5003 227.175 26.5003C229.867 26.5003 232.225 27.0662 234.248 28.198C236.272 29.3126 237.841 30.976 238.955 33.1881C240.07 35.4002 240.627 38.1354 240.627 41.3935V66.5242H232.936V42.3195C232.936 39.4558 232.19 37.2179 230.699 35.606C229.207 33.9769 227.157 33.1624 224.551 33.1624C222.768 33.1624 221.181 33.5482 219.792 34.3199C218.42 35.0916 217.332 36.2233 216.526 37.7152C215.737 39.19 215.342 40.9734 215.342 43.0655Z" fill="#EEF8FF"/>
<path d="M182.165 67.3216C178.272 67.3216 174.92 66.4899 172.107 64.8265C169.312 63.146 167.152 60.7881 165.625 57.7529C164.116 54.7005 163.362 51.1251 163.362 47.0267C163.362 42.9797 164.116 39.4129 165.625 36.3262C167.152 33.2395 169.278 30.8302 172.005 29.0983C174.748 27.3663 177.955 26.5003 181.625 26.5003C183.854 26.5003 186.015 26.869 188.107 27.6064C190.199 28.3437 192.076 29.5012 193.74 31.0789C195.403 32.6565 196.715 34.7057 197.675 37.2265C198.636 39.7301 199.116 42.7739 199.116 46.3579V49.0845H167.709V43.3227H191.579C191.579 41.2992 191.168 39.5072 190.345 37.9467C189.521 36.3691 188.364 35.1258 186.872 34.217C185.397 33.3081 183.665 32.8537 181.676 32.8537C179.515 32.8537 177.629 33.3853 176.017 34.4485C174.422 35.4945 173.188 36.8664 172.313 38.5641C171.456 40.2446 171.027 42.0709 171.027 44.0429V48.5443C171.027 51.1851 171.49 53.4316 172.416 55.2836C173.359 57.1356 174.671 58.5503 176.352 59.5277C178.032 60.488 179.996 60.9682 182.242 60.9682C183.7 60.9682 185.029 60.7624 186.229 60.3509C187.429 59.9221 188.467 59.2877 189.341 58.4474C190.216 57.6071 190.885 56.5697 191.348 55.335L198.627 56.6468C198.044 58.7904 196.998 60.6681 195.489 62.28C193.997 63.8748 192.119 65.1181 189.856 66.0098C187.609 66.8843 185.046 67.3216 182.165 67.3216Z" fill="#EEF8FF"/>
<path d="M156.244 30.9759H148.218C147.91 29.2611 147.335 27.7521 146.495 26.4488C145.655 25.1455 144.626 24.0395 143.408 23.1306C142.191 22.2218 140.828 21.5358 139.319 21.0728C137.827 20.6098 136.24 20.3783 134.56 20.3783C131.525 20.3783 128.807 21.1414 126.406 22.6676C124.022 24.1938 122.136 26.4316 120.747 29.3811C119.375 32.3306 118.689 35.9317 118.689 40.1845C118.689 44.4716 119.375 48.0898 120.747 51.0393C122.136 53.9888 124.031 56.2181 126.432 57.7271C128.832 59.2362 131.533 59.9907 134.534 59.9907C136.198 59.9907 137.775 59.7678 139.267 59.3219C140.776 58.8589 142.139 58.1815 143.357 57.2898C144.574 56.3981 145.603 55.3092 146.444 54.0231C147.301 52.7198 147.893 51.2279 148.218 49.5474L156.244 49.5731C155.815 52.1625 154.983 54.5461 153.749 56.7239C152.531 58.8846 150.962 60.7538 149.042 62.3314C147.138 63.8919 144.96 65.1008 142.508 65.9583C140.056 66.8157 137.381 67.2444 134.483 67.2444C129.921 67.2444 125.857 66.164 122.29 64.0034C118.724 61.8255 115.911 58.7131 113.853 54.6662C111.813 50.6192 110.792 45.792 110.792 40.1845C110.792 34.5599 111.821 29.7327 113.879 25.7028C115.937 21.6559 118.749 18.552 122.316 16.3914C125.883 14.2135 129.938 13.1246 134.483 13.1246C137.278 13.1246 139.884 13.5276 142.302 14.3336C144.737 15.1224 146.924 16.2885 148.861 17.8318C150.799 19.358 152.403 21.2272 153.672 23.4393C154.941 25.6342 155.798 28.1465 156.244 30.9759Z" fill="#EEF8FF"/>
<path d="M52.0626 82.9375C46.7131 77.588 46.7131 68.9148 52.0626 63.5653L63.7667 51.8612C69.1162 46.5117 77.7894 46.5117 83.1389 51.8612L52.0626 82.9375Z" fill="#EEF8FF"/>
<path d="M38.1391 6.86111C43.4886 12.2106 43.4886 20.8839 38.1391 26.2334L26.435 37.9375C21.0855 43.287 12.4122 43.287 7.06273 37.9374L38.1391 6.86111Z" fill="#EEF8FF"/>
<path d="M7.0624 52.0629C12.4119 46.7134 21.0852 46.7134 26.4347 52.0629L37.9369 63.5652C43.2865 68.9147 43.2865 77.5879 37.9369 82.9374L7.0624 52.0629Z" fill="#EEF8FF"/>
<path d="M82.9371 37.9372C77.5876 43.2867 68.9144 43.2867 63.5649 37.9372L52.0626 26.4349C46.7131 21.0854 46.7131 12.4121 52.0626 7.06262L82.9371 37.9372Z" fill="#EEF8FF"/>
</svg>
