<svg width="382" height="58" viewBox="0 0 382 58" fill="none" xmlns="http://www.w3.org/2000/svg">
<path d="M231.856 0V57.4099H227.288V0H231.856Z" fill="white"/>
<path d="M169.656 46.1598V19.9776H174.548V24.239H174.872C175.417 22.7958 176.309 21.6708 177.548 20.8639C178.787 20.0457 180.27 19.6367 181.997 19.6367C183.747 19.6367 185.213 20.0457 186.395 20.8639C187.588 21.6821 188.469 22.8071 189.037 24.239H189.309C189.934 22.8412 190.929 21.7276 192.292 20.898C193.656 20.0571 195.281 19.6367 197.168 19.6367C199.543 19.6367 201.48 20.381 202.98 21.8696C204.491 23.3583 205.247 25.6026 205.247 28.6027V46.1598H200.151V29.08C200.151 27.3072 199.668 26.0231 198.702 25.2276C197.736 24.4322 196.582 24.0344 195.241 24.0344C193.582 24.0344 192.292 24.5458 191.372 25.5686C190.452 26.5799 189.991 27.8811 189.991 29.472V46.1598H184.912V28.7561C184.912 27.3356 184.468 26.1936 183.582 25.3299C182.696 24.4663 181.542 24.0344 180.122 24.0344C179.156 24.0344 178.264 24.2901 177.446 24.8015C176.639 25.3015 175.985 26.0004 175.485 26.8981C174.997 27.7959 174.752 28.8356 174.752 30.0175V46.1598H169.656Z" fill="white"/>
<path d="M157.702 46.1597V19.9776H162.799V46.1597H157.702ZM160.276 15.9377C159.389 15.9377 158.628 15.6423 157.992 15.0514C157.367 14.4491 157.054 13.7332 157.054 12.9036C157.054 12.0627 157.367 11.3468 157.992 10.7558C158.628 10.1536 159.389 9.85242 160.276 9.85242C161.162 9.85242 161.918 10.1536 162.543 10.7558C163.179 11.3468 163.497 12.0627 163.497 12.9036C163.497 13.7332 163.179 14.4491 162.543 15.0514C161.918 15.6423 161.162 15.9377 160.276 15.9377Z" fill="white"/>
<path d="M139.28 46.1598V19.9776H144.206V24.1367H144.479C144.956 22.7276 145.797 21.6196 147.002 20.8128C148.218 19.9946 149.593 19.5855 151.127 19.5855C151.445 19.5855 151.82 19.5969 152.252 19.6196C152.695 19.6423 153.042 19.6707 153.292 19.7048V24.5799C153.087 24.5231 152.724 24.4606 152.201 24.3924C151.678 24.3129 151.155 24.2731 150.633 24.2731C149.428 24.2731 148.354 24.5288 147.411 25.0401C146.479 25.5401 145.741 26.239 145.195 27.1368C144.65 28.0231 144.377 29.0345 144.377 30.1709V46.1598H139.28Z" fill="white"/>
<path d="M127.318 35.3016V19.9776H132.432V46.1597H127.421V41.6256H127.148C126.546 43.0233 125.58 44.1881 124.25 45.12C122.932 46.0404 121.29 46.5007 119.324 46.5007C117.642 46.5007 116.153 46.1313 114.858 45.3927C113.574 44.6427 112.562 43.5347 111.824 42.0688C111.097 40.6028 110.733 38.7903 110.733 36.6312V19.9776H115.83V36.0176C115.83 37.8017 116.324 39.2221 117.313 40.279C118.301 41.3358 119.585 41.8642 121.165 41.8642C122.119 41.8642 123.068 41.6256 124.012 41.1483C124.966 40.671 125.756 39.9494 126.381 38.9835C127.017 38.0176 127.33 36.7903 127.318 35.3016Z" fill="white"/>
<path d="M105.095 19.9776V24.0685H90.7939V19.9776H105.095ZM94.6292 13.7048H99.7259V38.4721C99.7259 39.4608 99.8736 40.2051 100.169 40.7051C100.465 41.1938 100.845 41.529 101.311 41.7108C101.788 41.8813 102.305 41.9665 102.862 41.9665C103.271 41.9665 103.629 41.9381 103.936 41.8813C104.243 41.8245 104.482 41.779 104.652 41.7449L105.573 45.9552C105.277 46.0688 104.857 46.1825 104.311 46.2961C103.766 46.4211 103.084 46.4893 102.266 46.5007C100.925 46.5234 99.6748 46.2848 98.5156 45.7847C97.3565 45.2847 96.419 44.512 95.7031 43.4665C94.9872 42.4211 94.6292 41.1085 94.6292 39.529V13.7048Z" fill="white"/>
<path d="M69.2822 30.6141V46.1598H64.1855V19.9776H69.0777V24.239H69.4015C70.0038 22.8526 70.947 21.739 72.2311 20.898C73.5266 20.0571 75.1573 19.6367 77.1232 19.6367C78.9073 19.6367 80.4699 20.0117 81.8108 20.7617C83.1517 21.5003 84.1915 22.6026 84.9302 24.0685C85.6688 25.5345 86.0381 27.347 86.0381 29.5061V46.1598H80.9415V30.1198C80.9415 28.222 80.4471 26.739 79.4585 25.6708C78.4698 24.5913 77.1119 24.0515 75.3846 24.0515C74.2027 24.0515 73.1516 24.3072 72.2311 24.8185C71.322 25.3299 70.6004 26.0799 70.0663 27.0686C69.5436 28.0459 69.2822 29.2277 69.2822 30.6141Z" fill="white"/>
<path d="M47.2973 46.6882C44.7177 46.6882 42.4961 46.137 40.6325 45.0347C38.7802 43.9211 37.3483 42.3586 36.3369 40.3472C35.3369 38.3244 34.8369 35.9551 34.8369 33.2391C34.8369 30.5573 35.3369 28.1936 36.3369 26.1481C37.3483 24.1026 38.7574 22.506 40.5643 21.3583C42.3825 20.2105 44.5075 19.6367 46.9394 19.6367C48.4167 19.6367 49.8485 19.881 51.2349 20.3696C52.6213 20.8583 53.8656 21.6253 54.9679 22.6708C56.0702 23.7163 56.9395 25.0742 57.5759 26.7447C58.2122 28.4038 58.5304 30.4209 58.5304 32.7959V34.6028H37.7176V30.7845H53.536C53.536 29.4436 53.2633 28.2561 52.7178 27.222C52.1724 26.1765 51.4053 25.3526 50.4167 24.7504C49.4394 24.1481 48.2916 23.8469 46.9734 23.8469C45.5416 23.8469 44.2916 24.1992 43.2234 24.9038C42.1666 25.597 41.3484 26.5061 40.7688 27.6311C40.2006 28.7447 39.9165 29.955 39.9165 31.2618V34.2448C39.9165 35.9948 40.2234 37.4835 40.837 38.7108C41.462 39.9381 42.3313 40.8756 43.445 41.5233C44.5586 42.1597 45.8598 42.4779 47.3485 42.4779C48.3144 42.4779 49.1951 42.3415 49.9905 42.0688C50.786 41.7847 51.4735 41.3642 52.0531 40.8074C52.6326 40.2506 53.0758 39.5631 53.3826 38.7449L58.2066 39.6142C57.8202 41.0347 57.127 42.279 56.127 43.3472C55.1383 44.404 53.894 45.2279 52.394 45.8188C50.9053 46.3984 49.2064 46.6882 47.2973 46.6882Z" fill="white"/>
<path d="M30.1197 22.6026H24.8015C24.5969 21.4662 24.2163 20.4662 23.6594 19.6026C23.1026 18.7389 22.4208 18.0059 21.6139 17.4037C20.8071 16.8014 19.9037 16.3468 18.9037 16.04C17.915 15.7332 16.8639 15.5798 15.7502 15.5798C13.7388 15.5798 11.9377 16.0855 10.3467 17.0968C8.76717 18.1082 7.51715 19.5912 6.59668 21.5458C5.68758 23.5003 5.23303 25.8867 5.23303 28.705C5.23303 31.5459 5.68758 33.9437 6.59668 35.8982C7.51715 37.8528 8.77285 39.3301 10.3638 40.3301C11.9547 41.3301 13.7445 41.8301 15.7332 41.8301C16.8355 41.8301 17.8809 41.6824 18.8696 41.387C19.8696 41.0801 20.773 40.6313 21.5798 40.0403C22.3867 39.4494 23.0685 38.7278 23.6253 37.8755C24.1935 37.0119 24.5856 36.0232 24.8015 34.9096L30.1197 34.9266C29.8356 36.6426 29.2845 38.2221 28.4663 39.6653C27.6595 41.0972 26.6197 42.3358 25.3469 43.3813C24.0856 44.4154 22.6424 45.2166 21.0173 45.7847C19.3923 46.3529 17.6196 46.637 15.6991 46.637C12.6763 46.637 9.98309 45.9211 7.61943 44.4893C5.25576 43.0461 3.39209 40.9835 2.02844 38.3017C0.676146 35.6198 0 32.4209 0 28.705C0 24.9776 0.681828 21.7787 2.04548 19.1082C3.40914 16.4264 5.2728 14.3695 7.63647 12.9377C10.0001 11.4945 12.6877 10.7729 15.6991 10.7729C17.5514 10.7729 19.2787 11.0399 20.881 11.574C22.4946 12.0968 23.9435 12.8695 25.2276 13.8923C26.5117 14.9036 27.5743 16.1423 28.4152 17.6082C29.2561 19.0628 29.8243 20.7276 30.1197 22.6026Z" fill="white"/>
<path d="M354.781 43.122L352.472 43.5311C352.375 43.2356 352.222 42.9543 352.012 42.6873C351.807 42.4203 351.529 42.2015 351.176 42.031C350.824 41.8606 350.384 41.7754 349.855 41.7754C349.134 41.7754 348.531 41.9373 348.048 42.2612C347.565 42.5793 347.324 42.9913 347.324 43.497C347.324 43.9345 347.486 44.2868 347.81 44.5538C348.134 44.8209 348.656 45.0396 349.378 45.2101L351.458 45.6873C352.662 45.9658 353.56 46.3947 354.151 46.9743C354.742 47.5538 355.037 48.3067 355.037 49.2328C355.037 50.0169 354.81 50.7158 354.355 51.3295C353.906 51.9374 353.279 52.4147 352.472 52.7613C351.671 53.1079 350.742 53.2812 349.685 53.2812C348.219 53.2812 347.023 52.9687 346.097 52.3437C345.171 51.713 344.602 50.8181 344.392 49.659L346.855 49.284C347.009 49.926 347.324 50.4118 347.801 50.7414C348.279 51.0653 348.901 51.2272 349.668 51.2272C350.503 51.2272 351.171 51.0539 351.671 50.7073C352.171 50.355 352.421 49.926 352.421 49.4203C352.421 49.0113 352.267 48.6675 351.96 48.3891C351.659 48.1107 351.196 47.9004 350.571 47.7584L348.355 47.2726C347.134 46.9942 346.23 46.551 345.645 45.943C345.065 45.3351 344.776 44.5652 344.776 43.6333C344.776 42.8606 344.992 42.1845 345.423 41.6049C345.855 41.0253 346.452 40.5736 347.213 40.2498C347.975 39.9202 348.847 39.7554 349.83 39.7554C351.244 39.7554 352.358 40.0623 353.171 40.6759C353.983 41.2839 354.52 42.0992 354.781 43.122Z" fill="white"/>
<path d="M323.761 53.017V39.9259H326.207V42.0566H326.369C326.641 41.335 327.087 40.7725 327.707 40.3691C328.326 39.96 329.068 39.7554 329.931 39.7554C330.806 39.7554 331.539 39.96 332.13 40.3691C332.727 40.7782 333.167 41.3407 333.451 42.0566H333.588C333.9 41.3577 334.397 40.8009 335.079 40.3861C335.761 39.9657 336.573 39.7554 337.517 39.7554C338.704 39.7554 339.673 40.1276 340.423 40.8719C341.179 41.6163 341.556 42.7384 341.556 44.2385V53.017H339.008V44.4771C339.008 43.5907 338.767 42.9487 338.284 42.5509C337.801 42.1532 337.224 41.9543 336.554 41.9543C335.724 41.9543 335.079 42.21 334.619 42.7214C334.159 43.2271 333.928 43.8777 333.928 44.6731V53.017H331.389V44.3152C331.389 43.6049 331.167 43.0339 330.724 42.6021C330.281 42.1702 329.704 41.9543 328.994 41.9543C328.511 41.9543 328.065 42.0822 327.656 42.3379C327.252 42.5879 326.926 42.9373 326.676 43.3862C326.431 43.835 326.309 44.3549 326.309 44.9459V53.017H323.761Z" fill="white"/>
<path d="M315.317 53.2812C314.027 53.2812 312.916 53.0056 311.984 52.4545C311.058 51.8977 310.342 51.1164 309.836 50.1107C309.336 49.0993 309.086 47.9146 309.086 46.5567C309.086 45.2157 309.336 44.0339 309.836 43.0112C310.342 41.9884 311.047 41.1901 311.95 40.6162C312.859 40.0424 313.922 39.7554 315.138 39.7554C315.876 39.7554 316.592 39.8776 317.285 40.1219C317.979 40.3662 318.601 40.7498 319.152 41.2725C319.703 41.7952 320.138 42.4742 320.456 43.3095C320.774 44.139 320.933 45.1476 320.933 46.3351V47.2385H310.527V45.3294H318.436C318.436 44.6589 318.3 44.0652 318.027 43.5481C317.754 43.0254 317.371 42.6134 316.876 42.3123C316.388 42.0112 315.814 41.8606 315.155 41.8606C314.439 41.8606 313.814 42.0367 313.28 42.389C312.751 42.7356 312.342 43.1901 312.052 43.7527C311.768 44.3095 311.626 44.9146 311.626 45.568V47.0595C311.626 47.9345 311.78 48.6789 312.086 49.2925C312.399 49.9062 312.834 50.3749 313.39 50.6988C313.947 51.017 314.598 51.1761 315.342 51.1761C315.825 51.1761 316.266 51.1079 316.663 50.9715C317.061 50.8295 317.405 50.6192 317.694 50.3408C317.984 50.0624 318.206 49.7186 318.359 49.3096L320.771 49.7442C320.578 50.4545 320.231 51.0766 319.731 51.6107C319.237 52.1391 318.615 52.5511 317.865 52.8465C317.121 53.1363 316.271 53.2812 315.317 53.2812Z" fill="white"/>
<path d="M306.996 39.9259V41.9714H299.845V39.9259H306.996ZM301.763 36.7895H304.311V49.1732C304.311 49.6675 304.385 50.0397 304.533 50.2897C304.681 50.534 304.871 50.7016 305.104 50.7925C305.342 50.8778 305.601 50.9204 305.879 50.9204C306.084 50.9204 306.263 50.9062 306.416 50.8777C306.57 50.8493 306.689 50.8266 306.774 50.8096L307.235 52.9147C307.087 52.9715 306.877 53.0283 306.604 53.0852C306.331 53.1477 305.99 53.1818 305.581 53.1874C304.911 53.1988 304.286 53.0795 303.706 52.8295C303.127 52.5795 302.658 52.1931 302.3 51.6704C301.942 51.1476 301.763 50.4914 301.763 49.7016V36.7895Z" fill="white"/>
<path d="M297.827 43.122L295.518 43.5311C295.421 43.2356 295.268 42.9543 295.057 42.6873C294.853 42.4203 294.574 42.2015 294.222 42.031C293.87 41.8606 293.43 41.7754 292.901 41.7754C292.18 41.7754 291.577 41.9373 291.094 42.2612C290.611 42.5793 290.37 42.9913 290.37 43.497C290.37 43.9345 290.532 44.2868 290.856 44.5538C291.18 44.8209 291.702 45.0396 292.424 45.2101L294.503 45.6873C295.708 45.9658 296.606 46.3947 297.197 46.9743C297.788 47.5538 298.083 48.3067 298.083 49.2328C298.083 50.0169 297.856 50.7158 297.401 51.3295C296.952 51.9374 296.324 52.4147 295.518 52.7613C294.717 53.1079 293.788 53.2812 292.731 53.2812C291.265 53.2812 290.069 52.9687 289.143 52.3437C288.216 51.713 287.648 50.8181 287.438 49.659L289.901 49.284C290.055 49.926 290.37 50.4118 290.847 50.7414C291.324 51.0653 291.947 51.2272 292.714 51.2272C293.549 51.2272 294.216 51.0539 294.716 50.7073C295.217 50.355 295.467 49.926 295.467 49.4203C295.467 49.0113 295.313 48.6675 295.006 48.3891C294.705 48.1107 294.242 47.9004 293.617 47.7584L291.401 47.2726C290.18 46.9942 289.276 46.551 288.691 45.943C288.111 45.3351 287.822 44.5652 287.822 43.6333C287.822 42.8606 288.037 42.1845 288.469 41.6049C288.901 41.0253 289.498 40.5736 290.259 40.2498C291.02 39.9202 291.893 39.7554 292.876 39.7554C294.29 39.7554 295.404 40.0623 296.217 40.6759C297.029 41.2839 297.566 42.0992 297.827 43.122Z" fill="white"/>
<path d="M276.035 57.9261C275.654 57.9261 275.308 57.8949 274.995 57.8324C274.683 57.7756 274.45 57.7131 274.296 57.6449L274.91 55.5568C275.376 55.6818 275.791 55.7358 276.154 55.7187C276.518 55.7017 276.839 55.5653 277.118 55.3096C277.402 55.0539 277.652 54.6363 277.868 54.0568L278.183 53.1874L273.393 39.9259H276.12L279.436 50.0851H279.572L282.888 39.9259H285.623L280.228 54.7642C279.978 55.446 279.66 56.0227 279.274 56.4943C278.887 56.9716 278.427 57.3295 277.893 57.5682C277.359 57.8068 276.74 57.9261 276.035 57.9261Z" fill="white"/>
<path d="M268.703 40.1475C268.612 39.3407 268.237 38.7156 267.578 38.2725C266.919 37.8236 266.089 37.5992 265.089 37.5992C264.373 37.5992 263.754 37.7128 263.231 37.9401C262.709 38.1617 262.302 38.4685 262.013 38.8605C261.729 39.2469 261.586 39.6873 261.586 40.1816C261.586 40.5964 261.683 40.9543 261.876 41.2555C262.075 41.5566 262.334 41.8094 262.652 42.014C262.976 42.2129 263.322 42.3805 263.692 42.5168C264.061 42.6475 264.416 42.7555 264.757 42.8407L266.462 43.2839C267.018 43.4203 267.589 43.6049 268.175 43.8379C268.76 44.0708 269.302 44.3777 269.802 44.7583C270.303 45.139 270.706 45.6106 271.013 46.1731C271.325 46.7356 271.481 47.409 271.481 48.1931C271.481 49.1817 271.226 50.0596 270.714 50.8266C270.209 51.5937 269.473 52.1988 268.507 52.642C267.547 53.0852 266.385 53.3068 265.021 53.3068C263.714 53.3068 262.584 53.0994 261.629 52.6846C260.675 52.2698 259.927 51.6817 259.388 50.9204C258.848 50.1533 258.549 49.2442 258.493 48.1931H261.135C261.186 48.8237 261.39 49.3493 261.748 49.7698C262.112 50.1846 262.575 50.4942 263.138 50.6988C263.706 50.8976 264.328 50.9971 265.004 50.9971C265.748 50.9971 266.41 50.8806 266.99 50.6476C267.575 50.409 268.035 50.0794 268.371 49.659C268.706 49.2328 268.874 48.7357 268.874 48.1675C268.874 47.6504 268.726 47.2271 268.43 46.8976C268.141 46.568 267.746 46.2953 267.246 46.0794C266.751 45.8635 266.192 45.6731 265.567 45.5084L263.504 44.9458C262.106 44.5652 260.998 44.0055 260.18 43.2669C259.368 42.5282 258.961 41.5509 258.961 40.335C258.961 39.3293 259.234 38.4514 259.78 37.7014C260.325 36.9514 261.064 36.369 261.996 35.9542C262.927 35.5338 263.979 35.3236 265.149 35.3236C266.331 35.3236 267.373 35.5309 268.277 35.9457C269.186 36.3605 269.902 36.9315 270.425 37.6588C270.947 38.3804 271.22 39.21 271.243 40.1475H268.703Z" fill="white"/>
<path d="M375.833 24.1379C374.543 24.1379 373.433 23.8624 372.501 23.3112C371.575 22.7544 370.859 21.9731 370.353 20.9674C369.853 19.956 369.603 18.7714 369.603 17.4134C369.603 16.0725 369.853 14.8906 370.353 13.8679C370.859 12.8452 371.563 12.0468 372.467 11.473C373.376 10.8991 374.438 10.6122 375.654 10.6122C376.393 10.6122 377.109 10.7343 377.802 10.9786C378.495 11.223 379.117 11.6065 379.669 12.1292C380.22 12.652 380.654 13.331 380.973 14.1662C381.291 14.9958 381.45 16.0043 381.45 17.1918V18.0952H371.043V16.1861H378.953C378.953 15.5156 378.816 14.9219 378.543 14.4048C378.271 13.8821 377.887 13.4702 377.393 13.169C376.904 12.8679 376.33 12.7173 375.671 12.7173C374.955 12.7173 374.33 12.8934 373.796 13.2457C373.268 13.5923 372.859 14.0469 372.569 14.6094C372.285 15.1662 372.143 15.7713 372.143 16.4247V17.9162C372.143 18.7913 372.296 19.5356 372.603 20.1492C372.916 20.7629 373.35 21.2316 373.907 21.5555C374.464 21.8737 375.114 22.0328 375.859 22.0328C376.342 22.0328 376.782 21.9646 377.18 21.8282C377.578 21.6862 377.921 21.476 378.211 21.1975C378.501 20.9191 378.722 20.5754 378.876 20.1663L381.288 20.6009C381.095 21.3112 380.748 21.9333 380.248 22.4674C379.754 22.9959 379.132 23.4078 378.382 23.7033C377.637 23.993 376.788 24.1379 375.833 24.1379Z" fill="white"/>
<path d="M361.449 23.8737V10.7826H363.912V12.8622H364.049C364.287 12.1576 364.708 11.6037 365.31 11.2002C365.918 10.7911 366.606 10.5866 367.373 10.5866C367.532 10.5866 367.719 10.5923 367.935 10.6036C368.157 10.615 368.33 10.6292 368.455 10.6463V13.0838C368.353 13.0554 368.171 13.0241 367.91 12.99C367.648 12.9503 367.387 12.9304 367.125 12.9304C366.523 12.9304 365.986 13.0582 365.515 13.3139C365.049 13.5639 364.679 13.9134 364.407 14.3622C364.134 14.8054 363.998 15.3111 363.998 15.8793V23.8737H361.449Z" fill="white"/>
<path d="M351.594 24.1635C350.764 24.1635 350.014 24.0101 349.344 23.7033C348.673 23.3908 348.142 22.939 347.75 22.3481C347.364 21.7572 347.17 21.0328 347.17 20.1748C347.17 19.4362 347.312 18.8282 347.597 18.3509C347.881 17.8736 348.264 17.4958 348.747 17.2174C349.23 16.939 349.77 16.7287 350.366 16.5867C350.963 16.4446 351.571 16.3367 352.19 16.2628C352.974 16.1719 353.611 16.098 354.099 16.0412C354.588 15.9787 354.943 15.8793 355.165 15.7429C355.386 15.6066 355.497 15.385 355.497 15.0781V15.0185C355.497 14.2742 355.287 13.6974 354.867 13.2883C354.452 12.8792 353.832 12.6747 353.009 12.6747C352.151 12.6747 351.474 12.865 350.98 13.2457C350.491 13.6207 350.153 14.0384 349.966 14.4986L347.571 13.9531C347.855 13.1577 348.27 12.5156 348.815 12.027C349.366 11.5326 350 11.1747 350.716 10.9531C351.432 10.7258 352.185 10.6122 352.974 10.6122C353.497 10.6122 354.051 10.6747 354.636 10.7997C355.227 10.919 355.778 11.1406 356.29 11.4645C356.807 11.7883 357.23 12.2514 357.56 12.8537C357.889 13.4503 358.054 14.2259 358.054 15.1804V23.8737H355.565V22.0839H355.463C355.298 22.4135 355.051 22.7373 354.722 23.0555C354.392 23.3737 353.969 23.6379 353.452 23.8482C352.935 24.0584 352.315 24.1635 351.594 24.1635ZM352.148 22.118C352.852 22.118 353.455 21.9788 353.955 21.7004C354.46 21.422 354.844 21.0583 355.105 20.6095C355.372 20.1549 355.506 19.6691 355.506 19.1521V17.4645C355.415 17.5554 355.239 17.6407 354.977 17.7202C354.722 17.7941 354.429 17.8594 354.099 17.9162C353.77 17.9674 353.449 18.0157 353.136 18.0611C352.824 18.1009 352.563 18.135 352.352 18.1634C351.858 18.2259 351.406 18.331 350.997 18.4788C350.594 18.6265 350.27 18.8396 350.026 19.118C349.787 19.3907 349.668 19.7543 349.668 20.2089C349.668 20.8396 349.901 21.3169 350.366 21.6407C350.832 21.9589 351.426 22.118 352.148 22.118Z" fill="white"/>
<path d="M339.681 24.1379C338.414 24.1379 337.323 23.851 336.409 23.2771C335.5 22.6976 334.801 21.8993 334.312 20.8822C333.823 19.8651 333.579 18.7003 333.579 17.3878C333.579 16.0583 333.829 14.885 334.329 13.8679C334.829 12.8452 335.534 12.0468 336.443 11.473C337.352 10.8991 338.423 10.6122 339.656 10.6122C340.65 10.6122 341.537 10.7968 342.315 11.1662C343.093 11.5298 343.721 12.0412 344.199 12.7003C344.682 13.3594 344.968 14.1293 345.059 15.01H342.579C342.443 14.3963 342.13 13.8679 341.642 13.4247C341.159 12.9815 340.511 12.7599 339.699 12.7599C338.988 12.7599 338.366 12.9474 337.832 13.3224C337.304 13.6918 336.892 14.2202 336.596 14.9077C336.301 15.5895 336.153 16.3963 336.153 17.3282C336.153 18.2827 336.298 19.1066 336.588 19.7998C336.877 20.493 337.287 21.0299 337.815 21.4106C338.349 21.7913 338.977 21.9816 339.699 21.9816C340.181 21.9816 340.619 21.8936 341.011 21.7174C341.409 21.5356 341.741 21.2771 342.008 20.9419C342.281 20.6066 342.471 20.2032 342.579 19.7316H345.059C344.968 20.5782 344.693 21.3339 344.233 21.9987C343.772 22.6635 343.156 23.1862 342.383 23.5669C341.616 23.9476 340.716 24.1379 339.681 24.1379Z" fill="white"/>
<path d="M322.278 16.1009V23.8737H319.729V6.41893H322.244V12.9133H322.406C322.712 12.2088 323.181 11.6491 323.812 11.2343C324.443 10.8196 325.267 10.6122 326.284 10.6122C327.181 10.6122 327.965 10.7968 328.636 11.1662C329.312 11.5355 329.835 12.0866 330.204 12.8196C330.579 13.5469 330.767 14.456 330.767 15.5469V23.8737H328.218V15.8537C328.218 14.8935 327.971 14.1492 327.477 13.6207C326.982 13.0866 326.295 12.8196 325.414 12.8196C324.812 12.8196 324.272 12.9474 323.795 13.2031C323.323 13.4588 322.951 13.8338 322.678 14.3281C322.411 14.8168 322.278 15.4077 322.278 16.1009Z" fill="white"/>
<path d="M316.629 10.7826V12.8281H309.478V10.7826H316.629ZM311.396 7.64621H313.944V20.0299C313.944 20.5242 314.018 20.8964 314.166 21.1464C314.313 21.3907 314.504 21.5583 314.737 21.6492C314.975 21.7345 315.234 21.7771 315.512 21.7771C315.717 21.7771 315.896 21.7629 316.049 21.7345C316.203 21.7061 316.322 21.6833 316.407 21.6663L316.867 23.7714C316.72 23.8283 316.509 23.8851 316.237 23.9419C315.964 24.0044 315.623 24.0385 315.214 24.0442C314.543 24.0555 313.918 23.9362 313.339 23.6862C312.759 23.4362 312.291 23.0498 311.933 22.5271C311.575 22.0044 311.396 21.3481 311.396 20.5583V7.64621Z" fill="white"/>
<path d="M307.09 6.41893V23.8737H304.542V6.41893H307.09Z" fill="white"/>
<path d="M294.687 24.1635C293.857 24.1635 293.107 24.0101 292.437 23.7033C291.766 23.3908 291.235 22.939 290.843 22.3481C290.456 21.7572 290.263 21.0328 290.263 20.1748C290.263 19.4362 290.405 18.8282 290.689 18.3509C290.973 17.8736 291.357 17.4958 291.84 17.2174C292.323 16.939 292.863 16.7287 293.459 16.5867C294.056 16.4446 294.664 16.3367 295.283 16.2628C296.067 16.1719 296.704 16.098 297.192 16.0412C297.681 15.9787 298.036 15.8793 298.258 15.7429C298.479 15.6066 298.59 15.385 298.59 15.0781V15.0185C298.59 14.2742 298.38 13.6974 297.959 13.2883C297.545 12.8792 296.925 12.6747 296.101 12.6747C295.243 12.6747 294.567 12.865 294.073 13.2457C293.584 13.6207 293.246 14.0384 293.059 14.4986L290.664 13.9531C290.948 13.1577 291.363 12.5156 291.908 12.027C292.459 11.5326 293.093 11.1747 293.809 10.9531C294.525 10.7258 295.277 10.6122 296.067 10.6122C296.59 10.6122 297.144 10.6747 297.729 10.7997C298.32 10.919 298.871 11.1406 299.383 11.4645C299.9 11.7883 300.323 12.2514 300.653 12.8537C300.982 13.4503 301.147 14.2259 301.147 15.1804V23.8737H298.658V22.0839H298.556C298.391 22.4135 298.144 22.7373 297.814 23.0555C297.485 23.3737 297.062 23.6379 296.545 23.8482C296.027 24.0584 295.408 24.1635 294.687 24.1635ZM295.241 22.118C295.945 22.118 296.547 21.9788 297.047 21.7004C297.553 21.422 297.937 21.0583 298.198 20.6095C298.465 20.1549 298.599 19.6691 298.599 19.1521V17.4645C298.508 17.5554 298.331 17.6407 298.07 17.7202C297.814 17.7941 297.522 17.8594 297.192 17.9162C296.863 17.9674 296.542 18.0157 296.229 18.0611C295.917 18.1009 295.655 18.135 295.445 18.1634C294.951 18.2259 294.499 18.331 294.09 18.4788C293.687 18.6265 293.363 18.8396 293.118 19.118C292.88 19.3907 292.76 19.7543 292.76 20.2089C292.76 20.8396 292.993 21.3169 293.459 21.6407C293.925 21.9589 294.519 22.118 295.241 22.118Z" fill="white"/>
<path d="M282.433 24.1379C281.144 24.1379 280.033 23.8624 279.101 23.3112C278.175 22.7544 277.459 21.9731 276.953 20.9674C276.453 19.956 276.203 18.7714 276.203 17.4134C276.203 16.0725 276.453 14.8906 276.953 13.8679C277.459 12.8452 278.163 12.0468 279.067 11.473C279.976 10.8991 281.038 10.6122 282.254 10.6122C282.993 10.6122 283.709 10.7343 284.402 10.9786C285.095 11.223 285.717 11.6065 286.269 12.1292C286.82 12.652 287.254 13.331 287.573 14.1662C287.891 14.9958 288.05 16.0043 288.05 17.1918V18.0952H277.643V16.1861H285.553C285.553 15.5156 285.416 14.9219 285.144 14.4048C284.871 13.8821 284.487 13.4702 283.993 13.169C283.504 12.8679 282.93 12.7173 282.271 12.7173C281.555 12.7173 280.93 12.8934 280.396 13.2457C279.868 13.5923 279.459 14.0469 279.169 14.6094C278.885 15.1662 278.743 15.7713 278.743 16.4247V17.9162C278.743 18.7913 278.896 19.5356 279.203 20.1492C279.516 20.7629 279.95 21.2316 280.507 21.5555C281.064 21.8737 281.715 22.0328 282.459 22.0328C282.942 22.0328 283.382 21.9646 283.78 21.8282C284.178 21.6862 284.521 21.476 284.811 21.1975C285.101 20.9191 285.323 20.5754 285.476 20.1663L287.888 20.6009C287.695 21.3112 287.348 21.9333 286.848 22.4674C286.354 22.9959 285.732 23.4078 284.982 23.7033C284.237 23.993 283.388 24.1379 282.433 24.1379Z" fill="white"/>
<path d="M259.183 23.8737V6.41893H261.817V14.0043H270.518V6.41893H273.161V23.8737H270.518V16.2628H261.817V23.8737H259.183Z" fill="white"/>
</svg>
