<svg width="235" height="25" viewBox="0 0 235 25" fill="none" xmlns="http://www.w3.org/2000/svg">
<path d="M102.73 21.299V6.57192H106.465V10.3956L105.658 11.0229C105.797 10.0869 106.036 9.31021 106.375 8.69285C106.713 8.07549 107.112 7.59753 107.57 7.25898C108.048 6.90051 108.536 6.65158 109.034 6.51217C109.551 6.35285 110.059 6.27319 110.557 6.27319C111.334 6.27319 112.071 6.42255 112.768 6.72128C113.465 7.00009 114.072 7.488 114.59 8.18502C115.108 8.88204 115.466 9.83795 115.665 11.0528L113.455 11.8593C113.753 10.4653 114.182 9.36 114.739 8.54349C115.317 7.72698 115.974 7.14945 116.711 6.81089C117.467 6.45243 118.264 6.27319 119.1 6.27319C120.355 6.27319 121.371 6.552 122.147 7.10962C122.924 7.66723 123.492 8.38417 123.85 9.26042C124.229 10.1168 124.418 11.0328 124.418 12.0087V21.299H120.714V12.9048C120.714 12.168 120.614 11.5506 120.415 11.0528C120.236 10.535 119.967 10.1466 119.608 9.88774C119.25 9.62885 118.782 9.4994 118.204 9.4994C117.607 9.4994 117.099 9.65872 116.681 9.97736C116.263 10.296 115.944 10.774 115.725 11.4112C115.526 12.0485 115.426 12.865 115.426 13.8608V21.299H111.722V12.8451C111.722 11.7299 111.513 10.8934 111.095 10.3358C110.696 9.77821 110.109 9.4994 109.332 9.4994C108.715 9.4994 108.187 9.65872 107.749 9.97736C107.331 10.296 107.012 10.774 106.793 11.4112C106.574 12.0485 106.465 12.865 106.465 13.8608V21.299H102.73Z" fill="#080B14"/>
<path d="M95.3783 21.2988V6.57173H99.0824V21.2988H95.3783ZM95.2588 4.30144V0.477783H99.2318V4.30144H95.2588Z" fill="#080B14"/>
<path d="M82.6895 21.299V6.57192H86.4235V10.5748L85.8559 10.6345C85.9157 9.77821 86.1745 9.02144 86.6326 8.36425C87.0906 7.70706 87.6483 7.19923 88.3054 6.84077C88.9825 6.46238 89.6696 6.27319 90.3666 6.27319C90.8645 6.27319 91.3325 6.3429 91.7706 6.4823C92.2287 6.60179 92.6967 6.81089 93.1746 7.10962L91.3823 10.4553C91.1632 10.3358 90.8844 10.2263 90.5459 10.1267C90.2073 10.0271 89.8688 9.97736 89.5302 9.97736C89.1319 9.97736 88.7436 10.0471 88.3652 10.1865C88.0067 10.3259 87.6781 10.5449 87.3794 10.8437C87.1006 11.1424 86.8716 11.5407 86.6923 12.0385C86.6127 12.3174 86.543 12.6758 86.4832 13.1139C86.4434 13.5322 86.4235 14.1495 86.4235 14.966V21.299H82.6895Z" fill="#080B14"/>
<path d="M71.0255 21.5978C69.8306 21.5978 68.8249 21.3588 68.0083 20.8809C67.2118 20.4029 66.6143 19.7258 66.216 18.8495C65.8376 17.9733 65.6484 16.9477 65.6484 15.7727V6.57202H69.3526V14.8466C69.3526 15.5238 69.4323 16.1312 69.5916 16.6689C69.7509 17.1866 70.0297 17.6049 70.428 17.9235C70.8462 18.2222 71.4138 18.3716 72.1307 18.3716C73.007 18.3716 73.6642 18.1226 74.1023 17.6248C74.5603 17.1269 74.869 16.4398 75.0283 15.5636C75.2076 14.6674 75.2972 13.6219 75.2972 12.427V6.57202H79.0014V21.2991H75.2972V18.1027L75.805 18.4015C75.3669 19.5366 74.7197 20.3531 73.8633 20.851C73.007 21.3489 72.061 21.5978 71.0255 21.5978Z" fill="#080B14"/>
<path d="M60.4754 21.5978C59.6788 21.5978 58.942 21.4484 58.2649 21.1497C57.5878 20.851 57.0401 20.3631 56.6219 19.686C56.2236 19.0088 56.0244 18.1027 56.0244 16.9676V3.1367L59.7884 1.13525V15.9519C59.7884 16.8083 59.8979 17.4555 60.117 17.8936C60.3559 18.3317 60.814 18.5508 61.4911 18.5508C61.6902 18.5508 61.9093 18.5309 62.1483 18.4911C62.4072 18.4512 62.686 18.3915 62.9847 18.3118V21.1497C62.5665 21.309 62.1483 21.4185 61.7301 21.4783C61.3118 21.5579 60.8936 21.5978 60.4754 21.5978ZM53.3359 9.46962V6.57201H62.9847V9.46962H53.3359Z" fill="#080B14"/>
<path d="M37.998 21.299V6.57192H41.7321V9.91761L41.1346 9.97736C41.3935 9.08119 41.7719 8.36425 42.2698 7.82655C42.7677 7.28885 43.3452 6.90051 44.0024 6.66153C44.6596 6.40264 45.3367 6.27319 46.0337 6.27319C47.7065 6.27319 49.011 6.75115 49.947 7.70706C50.9029 8.64306 51.3808 9.9674 51.3808 11.6801V21.299H47.6468V13.0542C47.6468 11.8195 47.4277 10.9233 46.9896 10.3657C46.5515 9.78817 45.8644 9.4994 44.9284 9.4994C44.2115 9.4994 43.614 9.66868 43.1361 10.0072C42.678 10.3259 42.3295 10.8337 42.0906 11.5307C41.8516 12.2277 41.7321 13.1339 41.7321 14.2491V21.299H37.998Z" fill="#080B14"/>
<path d="M28.4084 21.5977C27.1338 21.5977 26.0385 21.3886 25.1224 20.9704C24.2063 20.5522 23.4496 19.9945 22.8521 19.2975C22.2746 18.5806 21.8464 17.774 21.5676 16.8779C21.2888 15.9618 21.1494 15.0059 21.1494 14.0101C21.1494 13.0542 21.2888 12.1182 21.5676 11.2021C21.8464 10.286 22.2646 9.45957 22.8223 8.72272C23.3799 7.98587 24.0968 7.39838 24.9731 6.96026C25.8692 6.50221 26.9347 6.27319 28.1694 6.27319C29.3245 6.27319 30.3302 6.47234 31.1865 6.87064C32.0428 7.24902 32.7498 7.78672 33.3074 8.48374C33.8651 9.16085 34.2833 9.95744 34.5621 10.8735C34.8608 11.7896 35.0102 12.7654 35.0102 13.801C35.0102 13.9404 35.0002 14.1396 34.9803 14.3985C34.9803 14.6374 34.9604 14.8963 34.9205 15.1751H24.8536C24.9532 16.2306 25.3415 17.0272 26.0186 17.5649C26.7156 18.1026 27.5819 18.3715 28.6175 18.3715C29.3743 18.3715 30.1111 18.242 30.828 17.9831C31.545 17.7043 32.1823 17.316 32.7399 16.8181L34.592 19.3274C33.8949 19.8651 33.2377 20.3032 32.6204 20.6418C32.003 20.9803 31.3558 21.2193 30.6787 21.3587C30.0215 21.518 29.2647 21.5977 28.4084 21.5977ZM31.3359 13.3231C31.3757 13.1637 31.4056 13.0044 31.4255 12.8451C31.4653 12.6858 31.4852 12.5364 31.4852 12.397C31.4852 11.9788 31.4056 11.5905 31.2463 11.232C31.0869 10.8536 30.8679 10.525 30.5891 10.2462C30.3103 9.9674 29.9717 9.75829 29.5734 9.61889C29.195 9.45957 28.7569 9.37991 28.259 9.37991C27.5222 9.37991 26.9048 9.52927 26.4069 9.828C25.9091 10.1267 25.5307 10.5151 25.2718 10.993C25.0328 11.4511 24.8835 11.929 24.8237 12.4269H32.5905L31.3359 13.3231Z" fill="#080B14"/>
<path d="M9.97735 21.7769C8.00578 21.7769 6.26323 21.3189 4.7497 20.4028C3.25608 19.4867 2.09106 18.2121 1.25464 16.5791C0.418212 14.9461 0 13.0442 0 10.8735C0 8.7028 0.418212 6.81088 1.25464 5.19778C2.09106 3.56476 3.25608 2.29021 4.7497 1.37413C6.26323 0.458041 8.00578 0 9.97735 0C12.1879 0 14.0898 0.557616 15.683 1.67285C17.2961 2.76817 18.4511 4.2817 19.1481 6.21344L15.5037 7.55769C15.0656 6.34289 14.3686 5.39693 13.4127 4.71982C12.4767 4.04272 11.3316 3.70417 9.97735 3.70417C8.74263 3.70417 7.65727 3.99293 6.72127 4.57046C5.80518 5.14799 5.09821 5.97446 4.60033 7.04986C4.12238 8.10535 3.8834 9.3799 3.8834 10.8735C3.8834 12.3671 4.12238 13.6516 4.60033 14.727C5.09821 15.8024 5.80518 16.6289 6.72127 17.2064C7.65727 17.784 8.74263 18.0727 9.97735 18.0727C11.3316 18.0727 12.4767 17.7342 13.4127 17.0571C14.3686 16.38 15.0656 15.434 15.5037 14.2192L19.1481 15.5336C18.4511 17.4653 17.2961 18.9888 15.683 20.1041C14.0898 21.2193 12.1879 21.7769 9.97735 21.7769Z" fill="#080B14"/>
<path d="M214.612 24.7278C214.19 24.7278 213.816 24.6669 213.492 24.5452C213.167 24.4154 212.887 24.2531 212.652 24.0584C212.425 23.8556 212.242 23.6487 212.104 23.4377L212.92 22.7318C213.074 23.0077 213.293 23.2471 213.577 23.4499C213.869 23.6446 214.218 23.742 214.624 23.742C214.981 23.742 215.261 23.669 215.463 23.5229C215.674 23.3688 215.78 23.17 215.78 22.9266C215.78 22.7318 215.715 22.5777 215.585 22.4641C215.455 22.3424 215.285 22.245 215.074 22.172C214.863 22.0909 214.632 22.0219 214.38 21.9651C214.153 21.9002 213.922 21.8272 213.687 21.7461C213.451 21.6649 213.236 21.5635 213.042 21.4418C212.855 21.312 212.701 21.1497 212.579 20.955C212.466 20.7522 212.409 20.5047 212.409 20.2126C212.409 19.7015 212.603 19.2917 212.993 18.9834C213.39 18.667 213.914 18.5088 214.563 18.5088C215.025 18.5088 215.447 18.6062 215.829 18.8009C216.21 18.9875 216.506 19.2674 216.717 19.6406L215.975 20.2126C215.812 19.9449 215.601 19.7502 215.342 19.6284C215.09 19.5067 214.814 19.4459 214.514 19.4459C214.23 19.4459 213.991 19.5067 213.796 19.6284C213.61 19.742 213.516 19.9003 213.516 20.1031C213.516 20.2491 213.557 20.3708 213.638 20.4682C213.727 20.5574 213.861 20.6386 214.04 20.7116C214.226 20.7765 214.453 20.8414 214.721 20.9063C214.973 20.9631 215.228 21.0321 215.488 21.1132C215.747 21.1943 215.987 21.2998 216.206 21.4296C216.425 21.5595 216.603 21.7339 216.741 21.953C216.879 22.172 216.948 22.456 216.948 22.8049C216.948 23.1862 216.851 23.5229 216.656 23.815C216.461 24.099 216.19 24.3221 215.841 24.4844C215.492 24.6466 215.082 24.7278 214.612 24.7278Z" fill="#080B14"/>
<path d="M205.865 24.6182V18.6183H207.07V19.9205L206.827 19.9936C206.932 19.6609 207.082 19.3891 207.277 19.1782C207.48 18.9591 207.715 18.7928 207.983 18.6792C208.259 18.5656 208.555 18.5088 208.871 18.5088C209.537 18.5088 210.056 18.7035 210.429 19.093C210.81 19.4743 211.001 20.0341 211.001 20.7724V24.6182H209.808V21.2106C209.808 20.6345 209.703 20.2126 209.492 19.9449C209.289 19.6771 208.973 19.5433 208.543 19.5433C208.218 19.5433 207.946 19.6163 207.727 19.7623C207.516 19.9084 207.354 20.1396 207.24 20.456C207.127 20.7724 207.07 21.1741 207.07 21.6609V24.6182H205.865Z" fill="#080B14"/>
<path d="M201.541 24.7278C200.973 24.7278 200.466 24.5939 200.02 24.3261C199.574 24.0584 199.221 23.6892 198.961 23.2187C198.71 22.7481 198.584 22.2126 198.584 21.6122C198.584 21.0118 198.71 20.4804 198.961 20.0179C199.213 19.5473 199.562 19.1782 200.008 18.9104C200.462 18.6427 200.973 18.5088 201.541 18.5088C202.117 18.5088 202.624 18.6427 203.063 18.9104C203.501 19.1782 203.846 19.5473 204.097 20.0179C204.357 20.4804 204.487 21.0118 204.487 21.6122C204.487 22.2126 204.357 22.7481 204.097 23.2187C203.846 23.6811 203.497 24.0503 203.05 24.3261C202.612 24.5939 202.109 24.7278 201.541 24.7278ZM201.541 23.669C201.898 23.669 202.207 23.5838 202.466 23.4134C202.734 23.243 202.937 23.0036 203.075 22.6953C203.221 22.387 203.294 22.026 203.294 21.6122C203.294 21.1903 203.221 20.8252 203.075 20.5169C202.937 20.2086 202.734 19.9733 202.466 19.811C202.207 19.6406 201.898 19.5554 201.541 19.5554C201.176 19.5554 200.86 19.6406 200.592 19.811C200.332 19.9814 200.13 20.2207 199.984 20.529C199.846 20.8292 199.777 21.1903 199.777 21.6122C199.777 22.026 199.846 22.387 199.984 22.6953C200.13 23.0036 200.332 23.243 200.592 23.4134C200.86 23.5838 201.176 23.669 201.541 23.669Z" fill="#080B14"/>
<path d="M196.024 24.6181V18.6182H197.216V24.6181H196.024ZM195.938 17.5838V16.1355H197.289V17.5838H195.938Z" fill="#080B14"/>
<path d="M193.839 24.7278C193.547 24.7278 193.275 24.671 193.024 24.5574C192.78 24.4438 192.586 24.2612 192.44 24.0097C192.302 23.7501 192.233 23.4174 192.233 23.0118V17.0849L193.438 16.4155V22.6953C193.438 23.028 193.486 23.2876 193.584 23.4742C193.689 23.6527 193.88 23.742 194.156 23.742C194.237 23.742 194.33 23.7339 194.436 23.7176C194.549 23.6933 194.671 23.6649 194.801 23.6325V24.5574C194.638 24.6142 194.476 24.6548 194.314 24.6791C194.152 24.7115 193.993 24.7278 193.839 24.7278ZM191.04 19.5433V18.6183H194.801V19.5433H191.04Z" fill="#080B14"/>
<path d="M187.075 24.7276C186.629 24.7276 186.243 24.6384 185.919 24.4599C185.603 24.2732 185.359 24.0096 185.189 23.6688C185.026 23.3199 184.945 22.898 184.945 22.4031V18.6182H186.138V22.0258C186.138 22.3828 186.183 22.6871 186.272 22.9386C186.361 23.182 186.499 23.3686 186.686 23.4984C186.88 23.6201 187.124 23.681 187.416 23.681C187.757 23.681 188.032 23.5958 188.243 23.4254C188.463 23.255 188.625 23.0035 188.73 22.6708C188.836 22.3301 188.888 21.9082 188.888 21.4051V18.6182H190.069V24.6181H188.888V23.328L189.132 23.3767C188.953 23.823 188.682 24.1597 188.316 24.3868C187.951 24.614 187.538 24.7276 187.075 24.7276Z" fill="#080B14"/>
<path d="M183.028 24.7277C182.646 24.7277 182.334 24.61 182.091 24.3747C181.847 24.1394 181.726 23.7662 181.726 23.2551V16.1355H182.906V23.0238C182.906 23.2348 182.951 23.3889 183.04 23.4863C183.137 23.5755 183.263 23.6202 183.417 23.6202C183.482 23.6202 183.555 23.6161 183.636 23.608C183.726 23.5918 183.815 23.5674 183.904 23.535V24.5451C183.758 24.61 183.604 24.6546 183.442 24.679C183.287 24.7114 183.149 24.7277 183.028 24.7277Z" fill="#080B14"/>
<path d="M177.427 24.7278C176.859 24.7278 176.352 24.5939 175.906 24.3261C175.46 24.0584 175.107 23.6892 174.847 23.2187C174.595 22.7481 174.47 22.2126 174.47 21.6122C174.47 21.0118 174.595 20.4804 174.847 20.0179C175.099 19.5473 175.447 19.1782 175.894 18.9104C176.348 18.6427 176.859 18.5088 177.427 18.5088C178.003 18.5088 178.51 18.6427 178.948 18.9104C179.386 19.1782 179.731 19.5473 179.983 20.0179C180.242 20.4804 180.372 21.0118 180.372 21.6122C180.372 22.2126 180.242 22.7481 179.983 23.2187C179.731 23.6811 179.382 24.0503 178.936 24.3261C178.498 24.5939 177.995 24.7278 177.427 24.7278ZM177.427 23.669C177.784 23.669 178.092 23.5838 178.352 23.4134C178.62 23.243 178.823 23.0036 178.961 22.6953C179.107 22.387 179.18 22.026 179.18 21.6122C179.18 21.1903 179.107 20.8252 178.961 20.5169C178.823 20.2086 178.62 19.9733 178.352 19.811C178.092 19.6406 177.784 19.5554 177.427 19.5554C177.062 19.5554 176.746 19.6406 176.478 19.811C176.218 19.9814 176.015 20.2207 175.869 20.529C175.731 20.8292 175.662 21.1903 175.662 21.6122C175.662 22.026 175.731 22.387 175.869 22.6953C176.015 23.0036 176.218 23.243 176.478 23.4134C176.746 23.5838 177.062 23.669 177.427 23.669Z" fill="#080B14"/>
<path d="M170.583 24.7642C169.715 24.7642 169.001 24.537 168.441 24.0826C167.889 23.6283 167.552 23.0238 167.431 22.2693L168.636 21.9772C168.725 22.5289 168.948 22.9468 169.305 23.2307C169.662 23.5147 170.1 23.6567 170.619 23.6567C170.919 23.6567 171.183 23.604 171.41 23.4985C171.646 23.3849 171.832 23.2267 171.97 23.0238C172.108 22.8129 172.177 22.5776 172.177 22.318C172.177 22.0421 172.1 21.8149 171.946 21.6364C171.8 21.4579 171.589 21.2997 171.313 21.1618C171.045 21.0158 170.721 20.8697 170.339 20.7237C169.844 20.5371 169.418 20.3342 169.061 20.1152C168.713 19.8961 168.441 19.6365 168.246 19.3363C168.059 19.028 167.966 18.6588 167.966 18.2288C167.966 17.7907 168.072 17.4053 168.283 17.0726C168.502 16.7318 168.806 16.4641 169.195 16.2694C169.585 16.0747 170.035 15.9773 170.546 15.9773C171.09 15.9773 171.573 16.1031 171.994 16.3546C172.425 16.598 172.765 16.9671 173.017 17.4621L172.031 18.0706C171.853 17.746 171.633 17.4986 171.374 17.3282C171.122 17.1578 170.834 17.0726 170.51 17.0726C170.258 17.0726 170.031 17.1213 169.828 17.2187C169.633 17.316 169.479 17.4499 169.366 17.6203C169.26 17.7825 169.208 17.9773 169.208 18.2044C169.208 18.4397 169.272 18.6426 169.402 18.813C169.54 18.9833 169.739 19.1375 169.999 19.2754C170.266 19.4052 170.599 19.5432 170.997 19.6892C171.5 19.8839 171.93 20.0949 172.287 20.3221C172.644 20.5411 172.919 20.8048 173.114 21.1131C173.309 21.4214 173.406 21.7987 173.406 22.2449C173.406 22.7318 173.285 23.1658 173.041 23.5472C172.806 23.9204 172.477 24.2165 172.055 24.4356C171.633 24.6546 171.143 24.7642 170.583 24.7642Z" fill="#080B14"/>
<path d="M230.253 11.5994L231.422 8.77588L229.109 3.12891H230.424L232.055 7.5832L233.71 3.12891H235L231.556 11.5994H230.253Z" fill="#080B14"/>
<path d="M225.939 9.2385C225.484 9.2385 225.079 9.15737 224.722 8.9951C224.373 8.82471 224.077 8.59348 223.833 8.3014C223.598 8.00931 223.419 7.67666 223.298 7.30344C223.176 6.93022 223.115 6.53672 223.115 6.12293C223.115 5.71726 223.176 5.32781 223.298 4.95459C223.419 4.58137 223.598 4.24872 223.833 3.95664C224.077 3.66455 224.373 3.43737 224.722 3.27511C225.079 3.10472 225.484 3.01953 225.939 3.01953C226.523 3.01953 227.03 3.16152 227.46 3.44549C227.898 3.72946 228.219 4.15947 228.421 4.73553L227.375 5.13715C227.269 4.82072 227.099 4.56109 226.864 4.35825C226.628 4.15542 226.32 4.054 225.939 4.054C225.566 4.054 225.257 4.15542 225.014 4.35825C224.77 4.55298 224.592 4.80855 224.478 5.12497C224.365 5.43329 224.308 5.76594 224.308 6.12293C224.308 6.47992 224.365 6.81663 224.478 7.13306C224.592 7.44948 224.77 7.70506 225.014 7.89978C225.257 8.0945 225.566 8.19186 225.939 8.19186C226.32 8.19186 226.628 8.0945 226.864 7.89978C227.099 7.69694 227.269 7.43326 227.375 7.10872L228.421 7.51033C228.219 8.0945 227.898 8.52857 227.46 8.81254C227.03 9.09652 226.523 9.2385 225.939 9.2385Z" fill="#080B14"/>
<path d="M216.668 9.12897V3.12906H217.873V4.43127L217.629 4.5043C217.735 4.17164 217.885 3.89984 218.08 3.68889C218.283 3.46983 218.518 3.3035 218.786 3.18991C219.061 3.07633 219.358 3.01953 219.674 3.01953C220.339 3.01953 220.859 3.21425 221.232 3.6037C221.613 3.98503 221.804 4.54486 221.804 5.28319V9.12897H220.611V5.72132C220.611 5.14526 220.506 4.72336 220.295 4.45561C220.092 4.18787 219.775 4.054 219.345 4.054C219.021 4.054 218.749 4.12702 218.53 4.27306C218.319 4.4191 218.157 4.65034 218.043 4.96676C217.93 5.28319 217.873 5.6848 217.873 6.17161V9.12897H216.668Z" fill="#080B14"/>
<path d="M213.99 9.12897L213.893 8.02148V5.35621C213.893 4.93431 213.771 4.60977 213.528 4.38259C213.284 4.15542 212.931 4.04183 212.469 4.04183C212.144 4.04183 211.832 4.10674 211.532 4.23655C211.24 4.36637 210.96 4.57732 210.692 4.8694L209.95 4.10268C210.307 3.72946 210.7 3.45766 211.13 3.28728C211.568 3.10878 212.043 3.01953 212.554 3.01953C213.357 3.01953 213.978 3.22642 214.416 3.64021C214.862 4.04588 215.086 4.61788 215.086 5.35621V9.12897H213.99ZM212.055 9.2385C211.609 9.2385 211.215 9.15737 210.875 8.9951C210.534 8.83283 210.27 8.60971 210.084 8.32574C209.897 8.03365 209.804 7.69694 209.804 7.31561C209.804 6.98296 209.873 6.69899 210.011 6.4637C210.149 6.22029 210.327 6.03368 210.546 5.90387C210.749 5.77405 210.98 5.6848 211.24 5.63612C211.508 5.57933 211.792 5.55093 212.092 5.55093H214.002V6.45153H212.262C212.1 6.45153 211.929 6.46775 211.751 6.50021C211.581 6.52455 211.435 6.58134 211.313 6.67059C211.215 6.74361 211.138 6.83692 211.082 6.9505C211.025 7.05598 210.996 7.18174 210.996 7.32778C210.996 7.61175 211.106 7.83893 211.325 8.00931C211.544 8.17969 211.836 8.26489 212.201 8.26489C212.51 8.26489 212.789 8.19592 213.041 8.05799C213.301 7.91195 213.508 7.71723 213.662 7.47382C213.816 7.22231 213.893 6.93833 213.893 6.62191L214.319 7.18174C214.246 7.60364 214.104 7.9728 213.893 8.28923C213.682 8.59754 213.418 8.83283 213.102 8.9951C212.794 9.15737 212.445 9.2385 212.055 9.2385Z" fill="#080B14"/>
<path d="M207.874 9.23827C207.582 9.23827 207.31 9.18148 207.059 9.06789C206.816 8.9543 206.621 8.77175 206.475 8.52023C206.337 8.2606 206.268 7.92795 206.268 7.52227V1.59539L207.473 0.926025V7.20585C207.473 7.5385 207.521 7.79813 207.619 7.98474C207.724 8.16324 207.915 8.25248 208.191 8.25248C208.272 8.25248 208.365 8.24437 208.471 8.22814C208.584 8.2038 208.706 8.17541 208.836 8.14295V9.06789C208.674 9.12468 208.511 9.16525 208.349 9.18959C208.187 9.22204 208.028 9.23827 207.874 9.23827ZM205.075 4.05377V3.12883H208.836V4.05377H205.075Z" fill="#080B14"/>
<path d="M203.886 9.23816C203.505 9.23816 203.192 9.12051 202.949 8.88522C202.706 8.64993 202.584 8.27671 202.584 7.76556V0.645996H203.764V7.53433C203.764 7.74528 203.809 7.89943 203.898 7.9968C203.996 8.08604 204.121 8.13067 204.276 8.13067C204.341 8.13067 204.414 8.12661 204.495 8.1185C204.584 8.10227 204.673 8.07793 204.762 8.04548V9.0556C204.616 9.12051 204.462 9.16513 204.3 9.18947C204.146 9.22193 204.008 9.23816 203.886 9.23816Z" fill="#080B14"/>
<path d="M197.937 9.23835C197.491 9.23835 197.106 9.1491 196.781 8.9706C196.465 8.78399 196.221 8.5203 196.051 8.17954C195.889 7.83066 195.808 7.40876 195.808 6.91384V3.12891H197V6.53656C197 6.89355 197.045 7.19781 197.134 7.44933C197.223 7.69273 197.361 7.87934 197.548 8.00916C197.743 8.13086 197.986 8.19171 198.278 8.19171C198.619 8.19171 198.895 8.10652 199.106 7.93613C199.325 7.76575 199.487 7.51423 199.593 7.18158C199.698 6.84082 199.751 6.41892 199.751 5.91588V3.12891H200.931V9.12881H199.751V7.83877L199.994 7.88745C199.816 8.33369 199.544 8.6704 199.179 8.89758C198.814 9.12476 198.4 9.23835 197.937 9.23835Z" fill="#080B14"/>
<path d="M192.172 9.2385C191.75 9.2385 191.377 9.17765 191.052 9.05595C190.728 8.92613 190.448 8.76386 190.213 8.56914C189.986 8.3663 189.803 8.15941 189.665 7.94846L190.48 7.24259C190.635 7.51845 190.854 7.75779 191.138 7.96063C191.43 8.15535 191.779 8.25272 192.184 8.25272C192.541 8.25272 192.821 8.17969 193.024 8.03365C193.235 7.8795 193.34 7.68072 193.34 7.43731C193.34 7.24259 193.276 7.08843 193.146 6.97485C193.016 6.85314 192.846 6.75578 192.635 6.68276C192.424 6.60163 192.192 6.53266 191.941 6.47587C191.714 6.41096 191.482 6.33794 191.247 6.2568C191.012 6.17567 190.797 6.07425 190.602 5.95255C190.416 5.82273 190.261 5.66046 190.14 5.46574C190.026 5.2629 189.969 5.01544 189.969 4.72336C189.969 4.21221 190.164 3.80248 190.553 3.49417C190.951 3.17774 191.474 3.01953 192.123 3.01953C192.586 3.01953 193.008 3.11689 193.389 3.31162C193.77 3.49823 194.067 3.77814 194.278 4.15136L193.535 4.72336C193.373 4.45561 193.162 4.26089 192.902 4.13919C192.651 4.01749 192.375 3.95664 192.075 3.95664C191.791 3.95664 191.551 4.01749 191.357 4.13919C191.17 4.25278 191.077 4.41099 191.077 4.61383C191.077 4.75987 191.117 4.88157 191.198 4.97893C191.288 5.06818 191.422 5.14932 191.6 5.22234C191.787 5.28724 192.014 5.35215 192.282 5.41706C192.533 5.47385 192.789 5.54282 193.048 5.62395C193.308 5.70509 193.547 5.81056 193.766 5.94038C193.985 6.07019 194.164 6.24463 194.302 6.4637C194.44 6.68276 194.509 6.96673 194.509 7.31561C194.509 7.69694 194.411 8.03365 194.217 8.32574C194.022 8.60971 193.75 8.83283 193.401 8.9951C193.052 9.15737 192.643 9.2385 192.172 9.2385Z" fill="#080B14"/>
<path d="M183.426 9.12897V3.12906H184.631V4.43127L184.387 4.5043C184.493 4.17164 184.643 3.89984 184.838 3.68889C185.04 3.46983 185.276 3.3035 185.543 3.18991C185.819 3.07633 186.115 3.01953 186.432 3.01953C187.097 3.01953 187.616 3.21425 187.99 3.6037C188.371 3.98503 188.562 4.54486 188.562 5.28319V9.12897H187.369V5.72132C187.369 5.14526 187.263 4.72336 187.053 4.45561C186.85 4.18787 186.533 4.054 186.103 4.054C185.779 4.054 185.507 4.12702 185.288 4.27306C185.077 4.4191 184.915 4.65034 184.801 4.96676C184.687 5.28319 184.631 5.6848 184.631 6.17161V9.12897H183.426Z" fill="#080B14"/>
<path d="M179.103 9.2385C178.535 9.2385 178.028 9.10463 177.582 8.83689C177.135 8.56914 176.782 8.19998 176.523 7.7294C176.271 7.25882 176.146 6.72333 176.146 6.12293C176.146 5.52254 176.271 4.9911 176.523 4.52864C176.774 4.05805 177.123 3.68889 177.569 3.42115C178.024 3.1534 178.535 3.01953 179.103 3.01953C179.679 3.01953 180.186 3.1534 180.624 3.42115C181.062 3.68889 181.407 4.05805 181.659 4.52864C181.918 4.9911 182.048 5.52254 182.048 6.12293C182.048 6.72333 181.918 7.25882 181.659 7.7294C181.407 8.19186 181.058 8.56103 180.612 8.83689C180.174 9.10463 179.671 9.2385 179.103 9.2385ZM179.103 8.17969C179.46 8.17969 179.768 8.0945 180.028 7.92412C180.296 7.75374 180.498 7.51439 180.636 7.20608C180.782 6.89777 180.855 6.53672 180.855 6.12293C180.855 5.70103 180.782 5.33593 180.636 5.02761C180.498 4.7193 180.296 4.48401 180.028 4.32174C179.768 4.15136 179.46 4.06617 179.103 4.06617C178.738 4.06617 178.421 4.15136 178.154 4.32174C177.894 4.49212 177.691 4.73147 177.545 5.03978C177.407 5.33998 177.338 5.70103 177.338 6.12293C177.338 6.53672 177.407 6.89777 177.545 7.20608C177.691 7.51439 177.894 7.75374 178.154 7.92412C178.421 8.0945 178.738 8.17969 179.103 8.17969Z" fill="#080B14"/>
<path d="M171.533 9.28709C170.746 9.28709 170.052 9.10454 169.452 8.73943C168.86 8.37432 168.397 7.85912 168.064 7.19382C167.732 6.52851 167.565 5.75773 167.565 4.88148C167.565 4.00522 167.732 3.2385 168.064 2.58131C168.397 1.91601 168.86 1.4008 169.452 1.0357C170.052 0.67059 170.746 0.488037 171.533 0.488037C172.401 0.488037 173.152 0.703044 173.784 1.13306C174.425 1.56307 174.884 2.15941 175.16 2.92208L174.003 3.34803C173.801 2.82066 173.488 2.41093 173.066 2.11884C172.644 1.81865 172.133 1.66855 171.533 1.66855C170.981 1.66855 170.498 1.80242 170.085 2.07016C169.679 2.32979 169.363 2.69896 169.135 3.17765C168.916 3.64823 168.807 4.21617 168.807 4.88148C168.807 5.54678 168.916 6.11878 169.135 6.59748C169.363 7.07617 169.679 7.44939 170.085 7.71713C170.498 7.97677 170.981 8.10658 171.533 8.10658C172.133 8.10658 172.644 7.96054 173.066 7.66845C173.488 7.36826 173.801 6.95447 174.003 6.42709L175.16 6.84088C174.884 7.59543 174.425 8.19177 173.784 8.6299C173.152 9.06803 172.401 9.28709 171.533 9.28709Z" fill="#080B14"/>
<path d="M145.672 24.7642L144.853 24.7642L144.853 2.66138L145.672 2.66138L145.672 24.7642Z" fill="#080B14"/>
</svg>
