<svg width="153" height="74" viewBox="0 0 153 74" fill="none" xmlns="http://www.w3.org/2000/svg">
<path d="M44.0487 66.9405C44.0821 69.1222 44.1156 70.7116 44.149 71.4908C44.1824 71.5843 44.1824 71.709 44.149 71.8025C44.149 71.9271 44.149 72.0206 44.149 72.0206C44.149 72.457 44.2159 72.8933 44.3496 73.2985C44.4833 72.8933 44.5501 72.457 44.5501 72.0206C44.5501 71.8648 44.617 69.5897 44.7173 65.9432C44.6839 65.9744 44.6504 66.0055 44.6504 66.0367C44.4164 66.3172 44.2159 66.6289 44.0487 66.9405ZM37.0957 21.4378C37.6305 20.9079 38.1319 20.2846 38.4996 19.6301C38.2322 20.1911 37.1959 22.3104 38.1988 22.4974C39.3019 22.6844 40.5388 22.3728 42.7784 19.7236C42.7116 16.3265 42.6447 13.3657 42.6113 11.1217H41.4079C41.341 11.1217 41.3076 11.1217 41.2408 11.1217C40.5722 11.1217 39.4691 11.0594 38.7336 10.0309C37.9314 8.90892 37.8979 7.75577 37.8645 6.91428C37.8311 5.69879 37.4968 3.48599 35.8588 2.23934C34.7223 1.39785 31.6469 0.743354 28.8055 1.80301C27.8695 2.14584 25.9975 3.04966 24.1589 3.89115C22.4875 4.67031 20.3481 5.63646 19.6796 5.63646C20.7827 5.16897 22.2535 4.48331 23.8581 3.64182C25.6966 2.70683 27.6355 1.70951 28.6049 1.33551C30.5437 0.618689 34.2543 0.400527 36.1597 1.83418C37.9648 3.20549 38.3325 5.57413 38.3659 6.85194C38.3994 7.69343 38.4328 8.72192 39.1348 9.75041C39.7699 10.6231 40.7728 10.6231 41.3745 10.6231H41.5082H42.5779C42.5779 10.3426 42.5779 10.0932 42.5779 9.81274C41.5082 9.87507 39.9705 9.93741 39.3019 8.59726C38.4996 6.97661 39.3688 2.8315 36.6945 1.08618C34.0203 -0.659127 29.7415 -0.222799 25.9306 1.83418C22.1533 3.85998 17.139 6.50912 10.9548 8.81542C4.77059 11.1217 0.926354 12.0567 0.190934 12.1502C-0.511058 12.2749 0.759213 12.7112 3.40004 12.7735C6.04087 12.8359 8.24713 12.6489 8.24713 12.6489L27.6355 4.42098C27.6355 4.42098 10.9214 12.1814 9.5174 13.0229C8.11341 13.8644 6.97686 14.1449 7.07714 14.924C7.17743 15.7032 8.24713 15.6097 11.1888 15.5473C14.1305 15.485 14.7656 15.2357 15.7685 14.9552C16.7713 14.6747 27.6355 9.99974 27.6355 9.99974C27.6355 9.99974 16.0025 15.3915 14.3311 16.6382C12.6596 17.8848 14.4648 18.29 15.6013 18.3211C16.7713 18.3523 19.8801 18.1965 21.6184 17.3861C23.3567 16.5758 28.772 13.3345 28.772 13.3345C28.772 13.3345 23.4235 16.9187 22.3872 17.729C21.5515 18.3835 21.117 18.9445 21.3175 19.6301C21.6184 20.5028 23.223 20.4093 25.3624 19.6925C25.3624 19.6925 27.5686 18.9756 28.4043 18.29C29.24 17.5731 31.58 15.6408 31.58 15.6408C31.58 15.6408 28.8055 18.3211 28.1035 19.4743C27.4349 20.6274 27.3012 20.9079 27.6355 21.5624C28.1035 22.4974 31.6469 21.5313 32.6497 20.5339C33.3851 19.7548 34.0871 18.9445 34.7223 18.0718C34.7223 18.0718 33.6526 19.6925 33.4186 20.6274C33.1846 21.5624 32.9171 22.3104 33.8866 22.4039C34.9563 22.5598 35.9591 22.5909 37.0957 21.4378ZM43.7144 42.662C43.8147 42.5997 43.915 42.5373 44.0153 42.475C44.2159 42.3503 44.383 42.2568 44.5167 42.1322C44.7841 41.9763 45.0516 41.7893 45.319 41.6335C45.3524 39.857 45.4193 38.0494 45.4527 36.2729C44.9179 36.0547 44.3496 35.8366 43.7479 35.6184C43.7144 35.6184 43.681 35.5873 43.6476 35.5873C43.5807 35.5561 43.5473 35.5561 43.4804 35.5249C43.0793 35.4003 42.7116 35.2444 42.277 35.1198C41.7756 34.9328 41.2742 34.7769 40.7728 34.5899C37.4299 36.2417 36.7614 37.0209 36.7614 38.5481C36.7614 40.6985 38.7336 41.6647 42.1433 43.6905C42.6782 43.3165 43.213 42.9737 43.7144 42.662ZM39.6028 38.8285C39.6028 38.8285 39.3688 37.4572 43.1462 35.8678C43.2464 35.8366 43.3467 35.7743 43.447 35.7431C43.4804 37.8936 43.5139 40.044 43.5807 42.1945C41.7087 41.0102 39.6028 39.8882 39.6028 38.8285ZM45.319 65.2887C45.1519 65.4757 44.9847 65.6627 44.8176 65.8185C45.787 67.034 45.7201 68.2184 45.1853 69.7455C45.6867 69.2157 46.6895 67.8755 45.8538 66.1302C45.6867 65.8497 45.5196 65.5692 45.319 65.2887ZM43.7813 52.5105C44.149 52.8534 44.5836 53.2585 45.0181 53.6637C45.2856 53.913 45.553 54.1624 45.8538 54.4429C45.8873 54.474 45.9541 54.5052 46.021 54.5675C48.2941 52.7287 50.3666 50.9834 50.3666 48.8018C50.3666 47.0876 48.595 45.5293 46.8233 44.2826C46.6561 44.3761 46.489 44.4696 46.3218 44.5943C45.9207 44.8436 45.553 45.0618 45.2187 45.28C45.2187 45.28 45.1853 45.28 45.1853 45.3111C45.1184 45.3735 45.0181 45.4046 44.9513 45.467C44.4833 45.7786 44.0487 46.0591 43.6476 46.3396C43.7144 48.4278 43.7479 50.5159 43.7813 52.5105ZM45.2187 45.6228C47.425 47.1188 48.2941 48.0849 48.2941 49.1446C48.2941 50.2354 47.0573 51.5132 45.0516 53.3832C45.085 50.8899 45.1519 48.3031 45.2187 45.6228ZM57.42 15.672C57.42 15.672 59.76 17.6043 60.5957 18.3211C61.4314 19.038 63.6376 19.7236 63.6376 19.7236C65.777 20.4404 67.3816 20.5339 67.6825 19.6613C67.9165 18.9756 67.4485 18.3835 66.6127 17.7601C65.5765 16.9498 60.228 13.3657 60.228 13.3657C60.228 13.3657 65.6433 16.607 67.3816 17.4173C69.1199 18.2276 72.2287 18.3835 73.3987 18.3523C74.5687 18.3211 76.3404 17.916 74.6689 16.6693C72.9975 15.4227 61.3645 10.0309 61.3645 10.0309C61.3645 10.0309 72.1953 14.737 73.2315 14.9863C74.2344 15.2668 74.8695 15.485 77.8112 15.5785C80.7529 15.6408 81.7891 15.7343 81.9229 14.9552C82.0566 14.2072 80.8866 13.9267 79.4826 13.054C78.0786 12.2125 61.3645 4.45214 61.3645 4.45214L80.7529 12.68C80.7529 12.68 82.9591 12.867 85.6 12.8047C88.2408 12.7424 89.5111 12.306 88.8091 12.1814C88.1071 12.0567 84.2294 11.1529 78.0452 8.84659C71.861 6.54028 66.8467 3.92232 63.0694 1.86534C59.292 -0.160467 54.9797 -0.627961 52.3055 1.11735C49.6312 2.86266 50.5004 6.97661 49.6981 8.62843C49.0295 9.96858 47.4918 9.90624 46.4221 9.84391C46.4221 10.0932 46.4221 10.3737 46.3887 10.6542H47.4918H47.6255C48.2272 10.6542 49.2301 10.6542 49.8652 9.78158C50.5672 8.78426 50.6006 7.7246 50.6341 6.88311C50.6675 5.60529 51.0352 3.23666 52.8403 1.86534C54.7457 0.431693 58.4563 0.649857 60.3951 1.36668C61.3645 1.70951 63.3034 2.70683 65.1419 3.67298C66.7465 4.51447 68.2173 5.20013 69.3204 5.66763C68.6184 5.66763 66.5125 4.70147 64.8411 3.92231C63.0359 3.04966 61.1639 2.177 60.1945 1.83418C57.3531 0.774522 54.2777 1.42901 53.1412 2.2705C51.4698 3.51715 51.1689 5.72996 51.1355 6.94544C51.1021 7.78693 51.0686 8.97125 50.2664 10.0621C49.5644 11.0906 48.4612 11.1529 47.7593 11.1529C47.6924 11.1529 47.659 11.1529 47.5921 11.1529H46.3887C46.3218 13.3969 46.255 16.3265 46.1881 19.6613C48.4612 22.3728 49.7649 22.7156 50.8346 22.4974C51.8375 22.3104 50.8346 20.1911 50.5338 19.6301C50.9349 20.2846 51.4029 20.8768 51.9378 21.4378C53.0409 22.5909 54.0772 22.5597 55.08 22.4351C56.0829 22.3104 55.782 21.5936 55.548 20.6586C55.314 19.7236 54.2443 18.103 54.2443 18.103C54.8795 18.9445 55.5814 19.7859 56.3169 20.5651C57.3197 21.5624 60.8631 22.5598 61.3311 21.5936C61.632 20.9703 61.5317 20.6586 60.8631 19.5055C60.228 18.3523 57.42 15.672 57.42 15.672ZM44.5501 6.13512C45.085 6.13512 45.6198 5.97929 46.0544 5.69879C46.489 5.4183 46.8567 5.01313 47.0573 4.57681C47.2578 4.10931 47.3247 3.61065 47.2244 3.11199C47.1241 2.61333 46.8567 2.177 46.489 1.80301C46.1213 1.46018 45.6198 1.21085 45.085 1.11735C44.5501 1.02385 44.0153 1.05502 43.5139 1.27318C43.0124 1.46018 42.5779 1.80301 42.3105 2.20817C42.0096 2.61333 41.8425 3.11199 41.8425 3.61065C41.8425 3.95348 41.9093 4.26514 42.043 4.57681C42.1767 4.88847 42.3773 5.16897 42.6447 5.38713C42.9122 5.63646 43.1796 5.82346 43.5139 5.94812C43.8147 6.07279 44.1824 6.13512 44.5501 6.13512ZM53.442 25.0842C53.442 25.0842 53.3752 23.3389 50.3332 23.1519C47.2244 22.9649 47.0907 24.2116 47.1575 24.6791C47.3915 24.6791 47.5921 24.7414 47.5921 24.8037C47.5921 24.8661 47.425 24.9284 47.2244 24.9284C47.3915 25.3959 47.8595 25.9569 49.1967 26.5802C50.2998 27.0789 50.8346 27.0477 51.4698 26.9542C51.4698 26.9542 52.2052 27.3594 52.2052 28.0139C52.2052 28.6372 51.0352 29.8527 45.553 32.4083C45.8873 18.6328 46.1881 6.54028 46.1881 6.54028H46.5224C46.6561 6.54028 46.7898 6.47795 46.8901 6.38445C46.9904 6.29095 47.0573 6.16629 47.0573 6.04162V5.88579C47.0573 5.82346 47.0573 5.76112 47.0238 5.69879C46.9904 5.63646 46.957 5.57413 46.8901 5.54296C46.5893 5.85462 46.255 6.10396 45.8538 6.29095C45.4527 6.47795 45.0181 6.54028 44.5836 6.54028C44.149 6.54028 43.7144 6.44679 43.3133 6.29095C42.9122 6.13512 42.5445 5.85462 42.277 5.54296C42.2102 5.60529 42.1767 5.63646 42.1433 5.69879C42.1099 5.76112 42.1099 5.82346 42.1099 5.88579V6.04162C42.1099 6.16629 42.1767 6.29095 42.277 6.38445C42.3773 6.47795 42.511 6.54028 42.6447 6.54028H42.979C42.979 6.54028 43.213 18.29 43.447 31.8161C43.915 32.0343 44.383 32.2525 44.9179 32.5018C44.9847 32.533 45.085 32.5641 45.1519 32.5953C46.3887 33.1563 47.425 33.6238 48.2941 34.0601C51.2358 33.0005 54.1106 31.785 54.9797 30.0708C56.5174 26.8919 53.442 25.0842 53.442 25.0842ZM49.3638 24.3674C49.0295 24.3674 48.7621 24.2116 48.7621 24.0246C48.7621 23.8376 49.0295 23.6817 49.3638 23.6817C49.6981 23.6817 49.9655 23.8376 49.9655 24.0246C49.9655 24.2116 49.6981 24.3674 49.3638 24.3674ZM44.0487 63.8239C44.3161 63.5122 44.5501 63.2006 44.8176 62.9201C44.851 61.1436 44.9179 59.149 44.9513 56.9985C44.617 56.6868 44.2493 56.3752 43.8481 56.0323C43.7144 55.9388 43.6142 55.8142 43.4804 55.7207C43.3133 55.5648 43.1462 55.4402 42.979 55.3155C42.043 56.1258 40.2045 57.9335 40.2045 59.4918C40.2045 61.3306 42.1099 63.2006 43.5473 64.5407C43.681 64.2602 43.8482 64.0421 44.0487 63.8239ZM43.8481 56.4063C43.915 59.0555 43.9484 61.4864 43.9819 63.5746C42.8787 62.2033 41.7087 60.8008 41.7087 59.8346C41.7087 58.9308 42.277 57.9023 43.8481 56.4063ZM44.617 32.907C38.0985 29.9773 36.7614 28.6372 36.7614 27.9827C36.7614 27.3282 37.4968 26.923 37.4968 26.923C38.1319 27.0477 38.6668 27.0477 39.7699 26.549C41.107 25.9569 41.575 25.3647 41.7422 24.8972C41.5416 24.8972 41.3745 24.8349 41.3745 24.7726C41.3745 24.7102 41.575 24.6479 41.809 24.6479V24.6167C41.8425 24.1492 41.6753 22.9337 38.5999 23.1207C35.558 23.3077 35.4911 25.0531 35.4911 25.0531C35.4911 25.0531 32.4157 26.8919 34.0203 30.0085C35.4242 32.7823 42.0096 34.2471 45.8204 35.8366C49.5978 37.4261 49.3638 38.7974 49.3638 38.7974C49.3638 39.9817 46.8233 41.2283 44.8176 42.5373C42.8119 43.8463 38.5665 46.1215 38.5665 48.8018C38.5665 51.2639 41.2073 53.165 43.7813 55.2843C46.3887 57.4036 47.2244 58.6815 47.2244 59.8658C47.2244 61.4864 44.3496 63.6681 42.8787 66.3795C41.4079 69.091 44.3161 73.2985 43.4136 71.0856C42.4776 68.8728 42.979 67.3145 44.1824 65.7562C45.6533 63.8551 48.7955 61.9851 48.7955 59.4606C48.7955 57.3413 45.4861 54.848 45.4861 54.848C42.5445 52.1054 40.6725 50.5471 40.6725 49.1758C40.6725 47.8044 42.0765 46.5889 46.021 44.1891C49.9321 41.8205 52.2386 40.8855 52.2386 38.5792C52.2386 36.5534 51.1355 35.8366 44.617 32.907ZM39.6028 23.7129C39.9371 23.7129 40.2045 23.8687 40.2045 24.0557C40.2045 24.2427 39.9371 24.3986 39.6028 24.3986C39.2685 24.3986 39.0011 24.2427 39.0011 24.0557C39.0011 23.8687 39.2685 23.7129 39.6028 23.7129Z" fill="#E8E8E8"/>
<path d="M147.689 65.6597V56.0652H143.992V54.5446H153V56.0652H149.303V65.6597H147.689Z" fill="#E8E8E8"/>
<path d="M134.328 65.6597V54.5446H135.964L141.437 62.8037V54.5446H143.073V65.6597H141.437L135.964 57.3929V65.6597H134.328Z" fill="#E8E8E8"/>
<path d="M123.703 65.6597L127.316 54.5446H129.639L133.251 65.6597H131.576L128.249 55.5172H128.666L125.378 65.6597H123.703ZM125.579 63.1511V61.6382H131.383V63.1511H125.579Z" fill="#E8E8E8"/>
<path d="M120.852 65.6597V54.5446H122.465V65.6597H120.852Z" fill="#E8E8E8"/>
<path d="M113.051 65.6597V54.5446H114.664V64.1391H119.697V65.6597H113.051Z" fill="#E8E8E8"/>
<path d="M103.526 65.6597V54.5446H108.019C108.127 54.5446 108.261 54.5498 108.42 54.5601C108.58 54.5652 108.731 54.5807 108.875 54.6064C109.493 54.7042 110.008 54.9151 110.419 55.2393C110.836 55.5635 111.147 55.9726 111.353 56.4666C111.559 56.9606 111.662 57.5061 111.662 58.103C111.662 58.7051 111.559 59.2531 111.353 59.7471C111.147 60.2411 110.836 60.6502 110.419 60.9744C110.008 61.2986 109.493 61.5095 108.875 61.6073C108.731 61.6279 108.577 61.6433 108.412 61.6536C108.253 61.6639 108.122 61.6691 108.019 61.6691H105.14V65.6597H103.526ZM105.14 60.1408H107.957C108.06 60.1408 108.173 60.1356 108.297 60.1253C108.425 60.115 108.546 60.097 108.659 60.0713C108.989 59.9941 109.254 59.8526 109.454 59.6468C109.655 59.4358 109.799 59.1939 109.887 58.9212C109.974 58.6485 110.018 58.3757 110.018 58.103C110.018 57.8303 109.974 57.5601 109.887 57.2925C109.799 57.0198 109.655 56.7805 109.454 56.5747C109.254 56.3637 108.989 56.2196 108.659 56.1424C108.546 56.1116 108.425 56.091 108.297 56.0807C108.173 56.0704 108.06 56.0652 107.957 56.0652H105.14V60.1408Z" fill="#E8E8E8"/>
<path d="M90.7041 65.6597V54.5446H92.1629L96.1921 62.9041L100.198 54.5446H101.672V65.652H100.144V58.049L96.5549 65.6597H95.8216L92.2247 58.049V65.6597H90.7041Z" fill="#E8E8E8"/>
<path d="M84.2247 65.8913C83.1132 65.8913 82.1664 65.6494 81.3842 65.1657C80.6021 64.6768 80.0026 63.9976 79.5858 63.1279C79.1741 62.2583 78.9683 61.2497 78.9683 60.1022C78.9683 58.9547 79.1741 57.9461 79.5858 57.0764C80.0026 56.2068 80.6021 55.5301 81.3842 55.0464C82.1664 54.5575 83.1132 54.3131 84.2247 54.3131C85.3311 54.3131 86.2754 54.5575 87.0575 55.0464C87.8448 55.5301 88.4443 56.2068 88.856 57.0764C89.2677 57.9461 89.4735 58.9547 89.4735 60.1022C89.4735 61.2497 89.2677 62.2583 88.856 63.1279C88.4443 63.9976 87.8448 64.6768 87.0575 65.1657C86.2754 65.6494 85.3311 65.8913 84.2247 65.8913ZM84.2247 64.3552C85.0121 64.3655 85.6656 64.1931 86.1853 63.8381C86.7102 63.4779 87.1038 62.9787 87.3663 62.3406C87.6287 61.6974 87.7599 60.9513 87.7599 60.1022C87.7599 59.2531 87.6287 58.5121 87.3663 57.8792C87.1038 57.2411 86.7102 56.7445 86.1853 56.3895C85.6656 56.0344 85.0121 55.8543 84.2247 55.8491C83.4374 55.8389 82.7813 56.0112 82.2565 56.3663C81.7367 56.7214 81.3456 57.2205 81.0832 57.8637C80.8208 58.507 80.687 59.2531 80.6818 60.1022C80.6767 60.9513 80.8053 61.6948 81.0678 62.3329C81.3302 62.9658 81.7239 63.4599 82.2487 63.8149C82.7788 64.17 83.4374 64.3501 84.2247 64.3552Z" fill="#E8E8E8"/>
<path d="M73.2565 65.8913C72.145 65.8913 71.1981 65.6494 70.416 65.1657C69.6338 64.6768 69.0343 63.9976 68.6175 63.1279C68.2058 62.2583 68 61.2497 68 60.1022C68 58.9547 68.2058 57.9461 68.6175 57.0764C69.0343 56.2068 69.6338 55.5301 70.416 55.0464C71.1981 54.5575 72.145 54.3131 73.2565 54.3131C74.5378 54.3131 75.5978 54.6373 76.4366 55.2857C77.2805 55.9341 77.8672 56.8063 78.1965 57.9023L76.5601 58.3423C76.344 57.5653 75.958 56.9555 75.4023 56.513C74.8517 56.0704 74.1364 55.8491 73.2565 55.8491C72.4692 55.8491 71.8131 56.0267 71.2882 56.3817C70.7633 56.7368 70.3671 57.2334 70.0995 57.8715C69.8371 58.5095 69.7058 59.2531 69.7058 60.1022C69.7007 60.9513 69.8293 61.6948 70.0918 62.3329C70.3594 62.971 70.7556 63.4676 71.2805 63.8226C71.8105 64.1777 72.4692 64.3552 73.2565 64.3552C74.1364 64.3552 74.8517 64.134 75.4023 63.6914C75.958 63.2437 76.344 62.6339 76.5601 61.8621L78.1965 62.302C77.8672 63.3981 77.2805 64.2703 76.4366 64.9187C75.5978 65.5671 74.5378 65.8913 73.2565 65.8913Z" fill="#E8E8E8"/>
<path d="M106 49L109.421 37H112.579L116 49H113.823L110.774 38.4167H111.179L108.177 49H106ZM108.053 46.5V44.3833H113.963V46.5H108.053Z" fill="#E8E8E8"/>
<path d="M94 49L97.7636 37H101.236L105 49H102.605L99.2519 38.4167H99.6967L96.395 49H94ZM96.2582 46.5V44.3833H102.759V46.5H96.2582Z" fill="#E8E8E8"/>
<path d="M85 49V37H89.9745C90.0891 37 90.2418 37.0056 90.4327 37.0167C90.6291 37.0222 90.8036 37.0389 90.9564 37.0667C91.66 37.1778 92.2355 37.4139 92.6827 37.775C93.1355 38.1361 93.4682 38.5917 93.6809 39.1417C93.8936 39.6861 94 40.2944 94 40.9667C94 41.6389 93.8909 42.25 93.6727 42.8C93.46 43.3444 93.1273 43.7972 92.6745 44.1583C92.2273 44.5194 91.6545 44.7556 90.9564 44.8667C90.8036 44.8889 90.6291 44.9056 90.4327 44.9167C90.2364 44.9278 90.0836 44.9333 89.9745 44.9333H87.2255V49H85ZM87.2255 42.8167H89.8764C89.9909 42.8167 90.1164 42.8111 90.2527 42.8C90.3891 42.7889 90.5145 42.7667 90.6291 42.7333C90.9291 42.65 91.1609 42.5111 91.3245 42.3167C91.4882 42.1167 91.6 41.8972 91.66 41.6583C91.7255 41.4139 91.7582 41.1833 91.7582 40.9667C91.7582 40.75 91.7255 40.5222 91.66 40.2833C91.6 40.0389 91.4882 39.8194 91.3245 39.625C91.1609 39.425 90.9291 39.2833 90.6291 39.2C90.5145 39.1667 90.3891 39.1444 90.2527 39.1333C90.1164 39.1222 89.9909 39.1167 89.8764 39.1167H87.2255V42.8167Z" fill="#E8E8E8"/>
<path d="M81 49V37H83V49H81Z" fill="#E8E8E8"/>
<path d="M69 49V37H71.2896V41.9333H76.7104V37H79V49H76.7104V44.05H71.2896V49H69Z" fill="#E8E8E8"/>
</svg>
