<svg width="297" height="32" viewBox="0 0 297 32" fill="none" xmlns="http://www.w3.org/2000/svg">
<path d="M129.434 26.8353V8.28018H134.139V13.0977L133.123 13.8881C133.298 12.7088 133.599 11.7303 134.026 10.9524C134.452 10.1746 134.954 9.57239 135.531 9.14584C136.134 8.69419 136.748 8.38055 137.376 8.20491C138.028 8.00417 138.668 7.90381 139.295 7.90381C140.274 7.90381 141.202 8.09199 142.08 8.46837C142.958 8.81965 143.724 9.43439 144.376 10.3126C145.028 11.1908 145.48 12.3952 145.731 13.9258L142.946 14.942C143.322 13.1856 143.862 11.793 144.564 10.7642C145.292 9.73549 146.12 9.00783 147.048 8.58128C148.002 8.12963 149.005 7.90381 150.059 7.90381C151.64 7.90381 152.92 8.25509 153.898 8.95765C154.877 9.66021 155.592 10.5635 156.044 11.6675C156.52 12.7465 156.759 13.9007 156.759 15.1301V26.8353H152.092V16.2593C152.092 15.3309 151.966 14.553 151.715 13.9258C151.489 13.2734 151.151 12.7841 150.699 12.4579C150.247 12.1317 149.658 11.9686 148.93 11.9686C148.177 11.9686 147.538 12.1694 147.011 12.5708C146.484 12.9723 146.082 13.5745 145.806 14.3774C145.555 15.1803 145.43 16.2091 145.43 17.4637V26.8353H140.763V16.184C140.763 14.7789 140.499 13.725 139.972 13.0225C139.471 12.3199 138.73 11.9686 137.752 11.9686C136.974 11.9686 136.309 12.1694 135.757 12.5708C135.23 12.9723 134.829 13.5745 134.553 14.3774C134.277 15.1803 134.139 16.2091 134.139 17.4637V26.8353H129.434Z" fill="white"/>
<path d="M120.171 26.8354V8.28028H124.838V26.8354H120.171ZM120.021 5.41986V0.602295H125.026V5.41986H120.021Z" fill="white"/>
<path d="M104.183 26.8353V8.28018H108.888V13.3236L108.173 13.3988C108.248 12.3199 108.574 11.3664 109.151 10.5384C109.728 9.71039 110.431 9.07056 111.259 8.61891C112.112 8.14218 112.978 7.90381 113.856 7.90381C114.483 7.90381 115.073 7.99163 115.625 8.16727C116.202 8.31782 116.792 8.58128 117.394 8.95765L115.136 13.173C114.86 13.0225 114.508 12.8845 114.082 12.759C113.655 12.6336 113.229 12.5708 112.802 12.5708C112.3 12.5708 111.811 12.6586 111.334 12.8343C110.883 13.0099 110.469 13.2859 110.092 13.6623C109.741 14.0387 109.452 14.5405 109.226 15.1678C109.126 15.5191 109.038 15.9707 108.963 16.5227C108.913 17.0496 108.888 17.8275 108.888 18.8562V26.8353H104.183Z" fill="white"/>
<path d="M89.4881 27.2117C87.9826 27.2117 86.7155 26.9106 85.6867 26.3084C84.6831 25.7062 83.9303 24.8531 83.4285 23.749C82.9517 22.645 82.7134 21.3528 82.7134 19.8724V8.28015H87.3804V18.7057C87.3804 19.5588 87.4808 20.3241 87.6815 21.0015C87.8822 21.6539 88.2335 22.1808 88.7353 22.5823C89.2622 22.9587 89.9774 23.1468 90.8807 23.1468C91.9847 23.1468 92.8127 22.8332 93.3647 22.2059C93.9418 21.5786 94.3307 20.713 94.5315 19.6089C94.7573 18.4798 94.8702 17.1625 94.8702 15.657V8.28015H99.5372V26.8353H94.8702V22.8081L95.51 23.1845C94.958 24.6147 94.1425 25.6434 93.0636 26.2707C91.9847 26.898 90.7928 27.2117 89.4881 27.2117Z" fill="white"/>
<path d="M76.1947 27.2117C75.1911 27.2117 74.2627 27.0235 73.4096 26.6471C72.5565 26.2707 71.8665 25.656 71.3396 24.8029C70.8377 23.9498 70.5868 22.8081 70.5868 21.3779V3.95187L75.3291 1.43018V20.0982C75.3291 21.1772 75.4671 21.9926 75.7431 22.5446C76.0442 23.0966 76.6213 23.3727 77.4744 23.3727C77.7253 23.3727 78.0013 23.3476 78.3024 23.2974C78.6286 23.2472 78.9799 23.1719 79.3563 23.0716V26.6471C78.8294 26.8478 78.3024 26.9858 77.7755 27.0611C77.2486 27.1615 76.7217 27.2117 76.1947 27.2117ZM67.1995 11.9309V8.28014H79.3563V11.9309H67.1995Z" fill="white"/>
<path d="M47.8748 26.8353V8.28018H52.5794V12.4955L51.8267 12.5708C52.1528 11.4417 52.6296 10.5384 53.2569 9.86094C53.8842 9.18347 54.6118 8.69419 55.4398 8.39309C56.2679 8.0669 57.121 7.90381 57.9992 7.90381C60.1068 7.90381 61.7503 8.506 62.9296 9.71039C64.134 10.8897 64.7362 12.5583 64.7362 14.7161V26.8353H60.0316V16.4475C60.0316 14.8918 59.7556 13.7627 59.2036 13.0601C58.6515 12.3325 57.7859 11.9686 56.6066 11.9686C55.7033 11.9686 54.9505 12.1819 54.3484 12.6085C53.7713 13.0099 53.3322 13.6498 53.0311 14.528C52.73 15.4062 52.5794 16.5478 52.5794 17.9529V26.8353H47.8748Z" fill="white"/>
<path d="M35.7923 27.2117C34.1865 27.2117 32.8064 26.9482 31.6522 26.4213C30.498 25.8944 29.5445 25.1918 28.7918 24.3136C28.0642 23.4103 27.5247 22.3941 27.1734 21.265C26.8221 20.1108 26.6465 18.9064 26.6465 17.6518C26.6465 16.4474 26.8221 15.2682 27.1734 14.1139C27.5247 12.9597 28.0516 11.9184 28.7542 10.9901C29.4567 10.0617 30.36 9.32147 31.464 8.76946C32.5932 8.19236 33.9356 7.90381 35.4912 7.90381C36.9465 7.90381 38.2136 8.15472 39.2926 8.65655C40.3715 9.13329 41.2623 9.81076 41.9648 10.689C42.6674 11.5421 43.1943 12.5457 43.5456 13.6999C43.922 14.8541 44.1101 16.0836 44.1101 17.3884C44.1101 17.564 44.0976 17.8149 44.0725 18.1411C44.0725 18.4422 44.0474 18.7684 43.9972 19.1197H31.3135C31.439 20.4495 31.9282 21.4532 32.7813 22.1307C33.6595 22.8081 34.751 23.1469 36.0558 23.1469C37.0093 23.1469 37.9376 22.9838 38.8409 22.6576C39.7442 22.3063 40.5472 21.817 41.2497 21.1897L43.5832 24.3513C42.705 25.0287 41.877 25.5807 41.0992 26.0073C40.3213 26.4339 39.5059 26.7349 38.6527 26.9106C37.8247 27.1113 36.8713 27.2117 35.7923 27.2117ZM39.4808 16.7862C39.5309 16.5855 39.5686 16.3847 39.5937 16.184C39.6439 15.9833 39.669 15.7951 39.669 15.6194C39.669 15.0925 39.5686 14.6032 39.3679 14.1516C39.1671 13.6748 38.8911 13.2608 38.5398 12.9096C38.1886 12.5583 37.762 12.2948 37.2602 12.1192C36.7834 11.9184 36.2314 11.8181 35.6041 11.8181C34.6758 11.8181 33.8979 12.0063 33.2706 12.3826C32.6433 12.759 32.1666 13.2483 31.8404 13.8505C31.5393 14.4276 31.3511 15.0298 31.2759 15.6571H41.0615L39.4808 16.7862Z" fill="white"/>
<path d="M12.5708 27.4375C10.0868 27.4375 7.89127 26.8604 5.98431 25.7062C4.10245 24.552 2.6346 22.9461 1.58076 20.8886C0.526921 18.8311 0 16.4349 0 13.6999C0 10.965 0.526921 8.58128 1.58076 6.54887C2.6346 4.49137 4.10245 2.88552 5.98431 1.73131C7.89127 0.577103 10.0868 0 12.5708 0C15.356 0 17.7522 0.702561 19.7595 2.10768C21.7919 3.48771 23.2472 5.39466 24.1254 7.82854L19.5337 9.52221C18.9817 7.99163 18.1035 6.79979 16.8991 5.94668C15.7198 5.09357 14.277 4.66701 12.5708 4.66701C11.0152 4.66701 9.64767 5.03084 8.46837 5.75849C7.31416 6.48614 6.42341 7.52744 5.79613 8.88238C5.19393 10.2122 4.89284 11.8181 4.89284 13.6999C4.89284 15.5818 5.19393 17.2002 5.79613 18.5551C6.42341 19.9101 7.31416 20.9514 8.46837 21.679C9.64767 22.4067 11.0152 22.7705 12.5708 22.7705C14.277 22.7705 15.7198 22.3439 16.8991 21.4908C18.1035 20.6377 18.9817 19.4459 19.5337 17.9153L24.1254 19.5713C23.2472 22.0052 21.7919 23.9247 19.7595 25.3298C17.7522 26.735 15.356 27.4375 12.5708 27.4375Z" fill="white"/>
<path d="M270.397 31.1553C269.865 31.1553 269.395 31.0787 268.986 30.9253C268.577 30.7618 268.225 30.5573 267.928 30.312C267.642 30.0564 267.412 29.7957 267.238 29.53L268.266 28.6406C268.46 28.9882 268.736 29.2897 269.094 29.5453C269.462 29.7906 269.901 29.9133 270.412 29.9133C270.862 29.9133 271.215 29.8213 271.47 29.6373C271.736 29.4431 271.869 29.1926 271.869 28.8859C271.869 28.6406 271.787 28.4464 271.624 28.3033C271.46 28.1499 271.245 28.0273 270.98 27.9353C270.714 27.833 270.423 27.7461 270.106 27.6746C269.819 27.5928 269.528 27.5008 269.232 27.3986C268.935 27.2964 268.664 27.1686 268.419 27.0152C268.184 26.8517 267.99 26.6472 267.836 26.4019C267.693 26.1463 267.622 25.8345 267.622 25.4665C267.622 24.8225 267.867 24.3063 268.358 23.9178C268.859 23.5192 269.518 23.3198 270.336 23.3198C270.918 23.3198 271.45 23.4425 271.93 23.6878C272.411 23.923 272.784 24.2756 273.05 24.7459L272.114 25.4665C271.91 25.1292 271.644 24.8839 271.317 24.7305C271 24.5772 270.653 24.5005 270.274 24.5005C269.917 24.5005 269.615 24.5772 269.37 24.7305C269.135 24.8736 269.017 25.073 269.017 25.3285C269.017 25.5125 269.068 25.6659 269.17 25.7885C269.283 25.901 269.451 26.0032 269.676 26.0952C269.911 26.177 270.198 26.2588 270.535 26.3406C270.852 26.4121 271.174 26.499 271.501 26.6012C271.828 26.7035 272.13 26.8363 272.406 26.9999C272.682 27.1635 272.907 27.3832 273.08 27.6593C273.254 27.9353 273.341 28.293 273.341 28.7326C273.341 29.2131 273.218 29.6373 272.973 30.0053C272.728 30.3631 272.385 30.6442 271.946 30.8487C271.506 31.0531 270.99 31.1553 270.397 31.1553Z" fill="#F1F1F1"/>
<path d="M259.376 31.0173V23.4578H260.894V25.0985L260.588 25.1905C260.721 24.7714 260.91 24.429 261.155 24.1632C261.411 23.8872 261.707 23.6776 262.045 23.5345C262.392 23.3914 262.765 23.3198 263.164 23.3198C264.002 23.3198 264.656 23.5652 265.127 24.0558C265.607 24.5363 265.847 25.2416 265.847 26.1719V31.0173H264.345V26.7239C264.345 25.9981 264.212 25.4665 263.946 25.1292C263.69 24.7919 263.292 24.6232 262.75 24.6232C262.341 24.6232 261.999 24.7152 261.723 24.8992C261.457 25.0832 261.252 25.3745 261.109 25.7732C260.966 26.1719 260.894 26.6779 260.894 27.2912V31.0173H259.376Z" fill="#F1F1F1"/>
<path d="M253.93 31.1553C253.214 31.1553 252.575 30.9867 252.013 30.6493C251.451 30.312 251.006 29.8469 250.679 29.254C250.362 28.6611 250.204 27.9864 250.204 27.2299C250.204 26.4734 250.362 25.8039 250.679 25.2212C250.996 24.6283 251.436 24.1632 251.998 23.8258C252.57 23.4885 253.214 23.3198 253.93 23.3198C254.656 23.3198 255.295 23.4885 255.847 23.8258C256.399 24.1632 256.833 24.6283 257.15 25.2212C257.477 25.8039 257.641 26.4734 257.641 27.2299C257.641 27.9864 257.477 28.6611 257.15 29.254C256.833 29.8366 256.394 30.3018 255.831 30.6493C255.279 30.9867 254.646 31.1553 253.93 31.1553ZM253.93 29.8213C254.38 29.8213 254.768 29.714 255.095 29.4993C255.433 29.2846 255.688 28.9831 255.862 28.5946C256.046 28.2062 256.138 27.7513 256.138 27.2299C256.138 26.6983 256.046 26.2383 255.862 25.8499C255.688 25.4614 255.433 25.165 255.095 24.9605C254.768 24.7459 254.38 24.6385 253.93 24.6385C253.47 24.6385 253.071 24.7459 252.734 24.9605C252.407 25.1752 252.151 25.4768 251.967 25.8652C251.793 26.2434 251.707 26.6983 251.707 27.2299C251.707 27.7513 251.793 28.2062 251.967 28.5946C252.151 28.9831 252.407 29.2846 252.734 29.4993C253.071 29.714 253.47 29.8213 253.93 29.8213Z" fill="#F1F1F1"/>
<path d="M246.977 31.0174V23.4579H248.48V31.0174H246.977ZM246.87 22.1545V20.3298H248.572V22.1545H246.87Z" fill="#F1F1F1"/>
<path d="M244.224 31.1553C243.856 31.1553 243.513 31.0837 243.196 30.9406C242.89 30.7975 242.644 30.5675 242.46 30.2506C242.287 29.9235 242.2 29.5043 242.2 28.9932V21.5257L243.718 20.6824V28.5945C243.718 29.0137 243.779 29.3408 243.902 29.5759C244.035 29.8008 244.275 29.9132 244.622 29.9132C244.725 29.9132 244.842 29.903 244.975 29.8826C245.118 29.8519 245.272 29.8161 245.435 29.7752V30.9406C245.231 31.0122 245.026 31.0633 244.822 31.0939C244.617 31.1348 244.418 31.1553 244.224 31.1553ZM240.697 24.6231V23.4578H245.435V24.6231H240.697Z" fill="#F1F1F1"/>
<path d="M235.703 31.1553C235.14 31.1553 234.655 31.0428 234.246 30.8179C233.847 30.5828 233.541 30.2506 233.326 29.8212C233.122 29.3817 233.019 28.8501 233.019 28.2265V23.4578H234.522V27.7512C234.522 28.201 234.578 28.5843 234.691 28.9012C234.803 29.2079 234.977 29.443 235.212 29.6066C235.457 29.7599 235.764 29.8366 236.132 29.8366C236.561 29.8366 236.909 29.7292 237.175 29.5146C237.451 29.2999 237.655 28.983 237.788 28.5639C237.921 28.1345 237.987 27.603 237.987 26.9692V23.4578H239.475V31.0173H237.987V29.3919L238.294 29.4532C238.069 30.0155 237.727 30.4397 237.267 30.7259C236.807 31.0122 236.285 31.1553 235.703 31.1553Z" fill="#F1F1F1"/>
<path d="M230.603 31.1554C230.123 31.1554 229.729 31.0072 229.423 30.7107C229.116 30.4143 228.963 29.944 228.963 29.3V20.3298H230.45V29.0087C230.45 29.2745 230.506 29.4687 230.619 29.5914C230.741 29.7038 230.9 29.76 231.094 29.76C231.176 29.76 231.268 29.7549 231.37 29.7447C231.482 29.7243 231.595 29.6936 231.707 29.6527V30.9254C231.523 31.0072 231.329 31.0634 231.125 31.0941C230.93 31.135 230.757 31.1554 230.603 31.1554Z" fill="#F1F1F1"/>
<path d="M223.547 31.1553C222.832 31.1553 222.193 30.9867 221.63 30.6493C221.068 30.312 220.624 29.8469 220.296 29.254C219.979 28.6611 219.821 27.9864 219.821 27.2299C219.821 26.4734 219.979 25.8039 220.296 25.2212C220.613 24.6283 221.053 24.1632 221.615 23.8258C222.188 23.4885 222.832 23.3198 223.547 23.3198C224.273 23.3198 224.912 23.4885 225.464 23.8258C226.016 24.1632 226.45 24.6283 226.767 25.2212C227.094 25.8039 227.258 26.4734 227.258 27.2299C227.258 27.9864 227.094 28.6611 226.767 29.254C226.45 29.8366 226.011 30.3018 225.449 30.6493C224.896 30.9867 224.263 31.1553 223.547 31.1553ZM223.547 29.8213C223.997 29.8213 224.385 29.714 224.712 29.4993C225.05 29.2846 225.305 28.9831 225.479 28.5946C225.663 28.2062 225.755 27.7513 225.755 27.2299C225.755 26.6983 225.663 26.2383 225.479 25.8499C225.305 25.4614 225.05 25.165 224.712 24.9605C224.385 24.7459 223.997 24.6385 223.547 24.6385C223.087 24.6385 222.688 24.7459 222.351 24.9605C222.024 25.1752 221.768 25.4768 221.584 25.8652C221.411 26.2434 221.324 26.6983 221.324 27.2299C221.324 27.7513 221.411 28.2062 221.584 28.5946C221.768 28.9831 222.024 29.2846 222.351 29.4993C222.688 29.714 223.087 29.8213 223.547 29.8213Z" fill="#F1F1F1"/>
<path d="M214.924 31.2014C213.83 31.2014 212.93 30.9152 212.225 30.3427C211.53 29.7703 211.106 29.0087 210.952 28.058L212.47 27.69C212.583 28.3851 212.864 28.9116 213.314 29.2694C213.764 29.6271 214.316 29.806 214.97 29.806C215.348 29.806 215.68 29.7396 215.967 29.6067C216.263 29.4636 216.498 29.2643 216.672 29.0087C216.846 28.7429 216.933 28.4465 216.933 28.1193C216.933 27.7718 216.835 27.4855 216.641 27.2607C216.457 27.0358 216.191 26.8364 215.844 26.6626C215.506 26.4786 215.098 26.2946 214.617 26.1106C213.994 25.8755 213.457 25.6199 213.007 25.3439C212.568 25.0679 212.225 24.7408 211.98 24.3626C211.745 23.9741 211.627 23.509 211.627 22.9672C211.627 22.4152 211.76 21.9296 212.026 21.5105C212.302 21.0812 212.685 20.7438 213.176 20.4985C213.666 20.2532 214.234 20.1305 214.878 20.1305C215.563 20.1305 216.171 20.2889 216.703 20.6058C217.244 20.9125 217.674 21.3776 217.991 22.0012L216.749 22.7679C216.524 22.359 216.248 22.0472 215.921 21.8325C215.604 21.6179 215.241 21.5105 214.832 21.5105C214.515 21.5105 214.229 21.5719 213.973 21.6945C213.728 21.8172 213.534 21.9859 213.39 22.2005C213.258 22.405 213.191 22.6503 213.191 22.9366C213.191 23.233 213.273 23.4886 213.436 23.7032C213.61 23.9179 213.861 24.1121 214.188 24.2859C214.525 24.4495 214.944 24.6233 215.445 24.8073C216.079 25.0526 216.621 25.3184 217.071 25.6046C217.52 25.8806 217.868 26.2129 218.113 26.6013C218.359 26.9898 218.481 27.4651 218.481 28.0273C218.481 28.6407 218.328 29.1876 218.021 29.668C217.725 30.1383 217.311 30.5114 216.779 30.7874C216.248 31.0634 215.629 31.2014 214.924 31.2014Z" fill="#F1F1F1"/>
<path d="M290.105 14.6144L291.577 11.057L288.664 3.94214H290.32L292.375 9.55426L294.46 3.94214H296.085L291.746 14.6144H290.105Z" fill="#F1F1F1"/>
<path d="M284.668 11.6398C284.096 11.6398 283.584 11.5376 283.135 11.3332C282.695 11.1185 282.322 10.8271 282.015 10.4591C281.719 10.0911 281.494 9.67201 281.341 9.20177C281.187 8.73154 281.111 8.23575 281.111 7.71441C281.111 7.20328 281.187 6.71261 281.341 6.24237C281.494 5.77214 281.719 5.35302 282.015 4.98501C282.322 4.61701 282.695 4.33078 283.135 4.12633C283.584 3.91166 284.096 3.80432 284.668 3.80432C285.404 3.80432 286.043 3.98321 286.585 4.341C287.137 4.69879 287.541 5.24058 287.796 5.96637L286.477 6.47238C286.344 6.0737 286.13 5.74659 285.833 5.49102C285.537 5.23546 285.148 5.10768 284.668 5.10768C284.198 5.10768 283.809 5.23546 283.503 5.49102C283.196 5.73636 282.971 6.05837 282.828 6.45705C282.685 6.8455 282.613 7.26462 282.613 7.71441C282.613 8.16419 282.685 8.58843 282.828 8.9871C282.971 9.38578 283.196 9.70778 283.503 9.95312C283.809 10.1985 284.198 10.3211 284.668 10.3211C285.148 10.3211 285.537 10.1985 285.833 9.95312C286.13 9.69756 286.344 9.36533 286.477 8.95643L287.796 9.46245C287.541 10.1985 287.137 10.7454 286.585 11.1031C286.043 11.4609 285.404 11.6398 284.668 11.6398Z" fill="#F1F1F1"/>
<path d="M272.988 11.5018V3.94232H274.506V5.58303L274.199 5.67503C274.332 5.25591 274.521 4.91346 274.766 4.64767C275.022 4.37167 275.319 4.16211 275.656 4.01899C276.003 3.87588 276.377 3.80432 276.775 3.80432C277.613 3.80432 278.268 4.04966 278.738 4.54034C279.218 5.02079 279.459 5.72614 279.459 6.65638V11.5018H277.956V7.2084C277.956 6.4826 277.823 5.95104 277.557 5.61369C277.302 5.27635 276.903 5.10768 276.361 5.10768C275.952 5.10768 275.61 5.19969 275.334 5.38369C275.068 5.56769 274.864 5.85903 274.72 6.25771C274.577 6.65638 274.506 7.1624 274.506 7.77574V11.5018H272.988Z" fill="#F1F1F1"/>
<path d="M269.615 11.5018L269.492 10.1065V6.74839C269.492 6.21682 269.339 5.80792 269.032 5.52169C268.725 5.23546 268.281 5.09235 267.698 5.09235C267.289 5.09235 266.895 5.17413 266.517 5.33769C266.149 5.50125 265.797 5.76703 265.459 6.13504L264.524 5.16902C264.974 4.69879 265.469 4.35633 266.011 4.14166C266.563 3.91677 267.161 3.80432 267.805 3.80432C268.817 3.80432 269.599 4.06499 270.151 4.58634C270.714 5.09746 270.995 5.81814 270.995 6.74839V11.5018H269.615ZM267.177 11.6398C266.614 11.6398 266.119 11.5376 265.689 11.3332C265.26 11.1287 264.928 10.8476 264.693 10.4898C264.457 10.1218 264.34 9.69756 264.34 9.21711C264.34 8.79799 264.427 8.4402 264.601 8.14375C264.774 7.83708 264.999 7.60196 265.275 7.4384C265.531 7.27484 265.822 7.16239 266.149 7.10106C266.487 7.0295 266.844 6.99372 267.223 6.99372H269.63V8.12842H267.437C267.233 8.12842 267.018 8.14886 266.793 8.18975C266.579 8.22042 266.395 8.29198 266.241 8.40442C266.119 8.49642 266.021 8.61398 265.95 8.7571C265.878 8.88999 265.843 9.04844 265.843 9.23244C265.843 9.59023 265.981 9.87645 266.257 10.0911C266.533 10.3058 266.901 10.4131 267.361 10.4131C267.749 10.4131 268.102 10.3262 268.419 10.1525C268.746 9.96846 269.006 9.72312 269.201 9.41644C269.395 9.09955 269.492 8.74176 269.492 8.34309L270.029 9.04844C269.937 9.58 269.758 10.0451 269.492 10.4438C269.226 10.8323 268.894 11.1287 268.495 11.3332C268.107 11.5376 267.667 11.6398 267.177 11.6398Z" fill="#F1F1F1"/>
<path d="M261.909 11.6396C261.541 11.6396 261.198 11.5681 260.881 11.425C260.575 11.2819 260.329 11.0519 260.145 10.735C259.972 10.4078 259.885 9.98872 259.885 9.4776V2.0101L261.403 1.16675V9.07892C261.403 9.49804 261.464 9.82516 261.587 10.0603C261.72 10.2852 261.96 10.3976 262.307 10.3976C262.41 10.3976 262.527 10.3874 262.66 10.367C262.803 10.3363 262.957 10.3005 263.12 10.2596V11.425C262.916 11.4965 262.711 11.5476 262.507 11.5783C262.302 11.6192 262.103 11.6396 261.909 11.6396ZM258.382 5.1075V3.94214H263.12V5.1075H258.382Z" fill="#F1F1F1"/>
<path d="M256.883 11.6398C256.403 11.6398 256.009 11.4916 255.703 11.1951C255.396 10.8987 255.243 10.4284 255.243 9.78441V0.814209H256.73V9.49307C256.73 9.75885 256.786 9.95308 256.899 10.0757C257.021 10.1882 257.18 10.2444 257.374 10.2444C257.456 10.2444 257.548 10.2393 257.65 10.2291C257.763 10.2086 257.875 10.178 257.987 10.1371V11.4098C257.803 11.4916 257.609 11.5478 257.405 11.5784C257.21 11.6193 257.037 11.6398 256.883 11.6398Z" fill="#F1F1F1"/>
<path d="M249.389 11.6396C248.827 11.6396 248.341 11.5272 247.932 11.3023C247.534 11.0672 247.227 10.735 247.012 10.3056C246.808 9.86605 246.706 9.33448 246.706 8.71091V3.94214H248.208V8.23557C248.208 8.68535 248.264 9.0687 248.377 9.38559C248.489 9.69227 248.663 9.92738 248.898 10.0909C249.144 10.2443 249.45 10.3209 249.818 10.3209C250.248 10.3209 250.595 10.2136 250.861 9.99894C251.137 9.78427 251.341 9.46737 251.474 9.04825C251.607 8.61891 251.674 8.08734 251.674 7.45355V3.94214H253.161V11.5016H251.674V9.87627L251.98 9.9376C251.755 10.4998 251.413 10.9241 250.953 11.2103C250.493 11.4965 249.972 11.6396 249.389 11.6396Z" fill="#F1F1F1"/>
<path d="M242.126 11.6398C241.594 11.6398 241.124 11.5632 240.715 11.4098C240.306 11.2463 239.954 11.0418 239.657 10.7965C239.371 10.5409 239.141 10.2802 238.967 10.0145L239.994 9.1251C240.189 9.47267 240.465 9.77423 240.822 10.0298C241.19 10.2751 241.63 10.3978 242.141 10.3978C242.591 10.3978 242.944 10.3058 243.199 10.1218C243.465 9.92757 243.598 9.67712 243.598 9.37044C243.598 9.1251 243.516 8.93088 243.352 8.78776C243.189 8.63443 242.974 8.51176 242.708 8.41976C242.443 8.31753 242.151 8.23064 241.834 8.15908C241.548 8.0773 241.257 7.9853 240.96 7.88308C240.664 7.78085 240.393 7.65307 240.148 7.49974C239.913 7.33618 239.718 7.13173 239.565 6.88639C239.422 6.63083 239.35 6.31904 239.35 5.95103C239.35 5.30702 239.596 4.79079 240.086 4.40233C240.587 4.00366 241.247 3.80432 242.064 3.80432C242.647 3.80432 243.179 3.92699 243.659 4.17233C244.14 4.40745 244.513 4.76012 244.779 5.23035L243.843 5.95103C243.639 5.61369 243.373 5.36836 243.046 5.21502C242.729 5.06168 242.381 4.98501 242.003 4.98501C241.645 4.98501 241.344 5.06168 241.098 5.21502C240.863 5.35813 240.746 5.55747 240.746 5.81303C240.746 5.99704 240.797 6.15037 240.899 6.27304C241.012 6.38549 241.18 6.48771 241.405 6.57972C241.64 6.6615 241.926 6.74327 242.264 6.82505C242.581 6.89661 242.903 6.9835 243.23 7.08573C243.557 7.18795 243.858 7.32084 244.134 7.4844C244.41 7.64796 244.635 7.86774 244.809 8.14375C244.983 8.41976 245.07 8.77754 245.07 9.21711C245.07 9.69756 244.947 10.1218 244.702 10.4898C244.456 10.8476 244.114 11.1287 243.674 11.3332C243.235 11.5376 242.719 11.6398 242.126 11.6398Z" fill="#F1F1F1"/>
<path d="M231.105 11.5018V3.94232H232.623V5.58303L232.316 5.67503C232.449 5.25591 232.638 4.91346 232.883 4.64767C233.139 4.37167 233.435 4.16211 233.773 4.01899C234.12 3.87588 234.493 3.80432 234.892 3.80432C235.73 3.80432 236.385 4.04966 236.855 4.54034C237.335 5.02079 237.576 5.72614 237.576 6.65638V11.5018H236.073V7.2084C236.073 6.4826 235.94 5.95104 235.674 5.61369C235.419 5.27635 235.02 5.10768 234.478 5.10768C234.069 5.10768 233.727 5.19969 233.451 5.38369C233.185 5.56769 232.981 5.85903 232.837 6.25771C232.694 6.65638 232.623 7.1624 232.623 7.77574V11.5018H231.105Z" fill="#F1F1F1"/>
<path d="M225.658 11.6398C224.943 11.6398 224.304 11.4712 223.742 11.1338C223.18 10.7965 222.735 10.3314 222.408 9.73845C222.091 9.14555 221.932 8.47087 221.932 7.71441C221.932 6.95795 222.091 6.28838 222.408 5.7057C222.725 5.11279 223.164 4.64767 223.726 4.31033C224.299 3.97299 224.943 3.80432 225.658 3.80432C226.384 3.80432 227.023 3.97299 227.575 4.31033C228.127 4.64767 228.562 5.11279 228.879 5.7057C229.206 6.28838 229.369 6.95795 229.369 7.71441C229.369 8.47087 229.206 9.14555 228.879 9.73845C228.562 10.3211 228.122 10.7863 227.56 11.1338C227.008 11.4712 226.374 11.6398 225.658 11.6398ZM225.658 10.3058C226.108 10.3058 226.497 10.1985 226.824 9.98379C227.161 9.76912 227.417 9.46756 227.59 9.0791C227.775 8.69065 227.867 8.23575 227.867 7.71441C227.867 7.18284 227.775 6.72283 227.59 6.33438C227.417 5.94592 227.161 5.64947 226.824 5.44502C226.497 5.23035 226.108 5.12302 225.658 5.12302C225.198 5.12302 224.8 5.23035 224.462 5.44502C224.135 5.6597 223.88 5.96126 223.696 6.34971C223.522 6.72794 223.435 7.18284 223.435 7.71441C223.435 8.23575 223.522 8.69065 223.696 9.0791C223.88 9.46756 224.135 9.76912 224.462 9.98379C224.8 10.1985 225.198 10.3058 225.658 10.3058Z" fill="#F1F1F1"/>
<path d="M216.12 11.701C215.128 11.701 214.254 11.471 213.498 11.011C212.752 10.551 212.169 9.90184 211.75 9.0636C211.331 8.22536 211.121 7.25423 211.121 6.1502C211.121 5.04618 211.331 4.08016 211.75 3.25214C212.169 2.4139 212.752 1.76477 213.498 1.30476C214.254 0.844751 215.128 0.614746 216.12 0.614746C217.214 0.614746 218.159 0.885641 218.957 1.42743C219.764 1.96922 220.342 2.72057 220.689 3.68148L219.233 4.21816C218.977 3.5537 218.583 3.03747 218.052 2.66946C217.52 2.29123 216.876 2.10211 216.12 2.10211C215.425 2.10211 214.817 2.27078 214.295 2.60812C213.784 2.93524 213.385 3.40036 213.099 4.00349C212.823 4.59639 212.685 5.31196 212.685 6.1502C212.685 6.98844 212.823 7.70912 213.099 8.31225C213.385 8.91537 213.784 9.38561 214.295 9.72295C214.817 10.0501 215.425 10.2136 216.12 10.2136C216.876 10.2136 217.52 10.0296 218.052 9.66161C218.583 9.28338 218.977 8.76204 219.233 8.09758L220.689 8.61892C220.342 9.56961 219.764 10.321 218.957 10.873C218.159 11.425 217.214 11.701 216.12 11.701Z" fill="#F1F1F1"/>
<path d="M183.537 31.2014L182.505 31.2014L182.505 3.35327L183.537 3.35327L183.537 31.2014Z" fill="white"/>
</svg>
