<svg width="79" height="79" viewBox="0 0 79 79" fill="none" xmlns="http://www.w3.org/2000/svg">
<rect width="79" height="79" rx="4" fill="#070A0C"/>
<path d="M18.9739 42.6597V35.9952H25.9986L32.483 37.166L32.9333 35.9952L27.5296 32.3027L22.5763 27.2593L27.2595 22.5762L32.3029 27.5295L35.9953 32.9332L37.1661 32.4829L35.9953 25.9985V18.9738H42.6598V25.9985L41.489 32.4829L42.6598 32.9332L46.3523 27.5295L51.3957 22.5762L56.0789 27.2593L51.1255 32.3027L45.7219 35.9952L46.1722 37.166L52.6566 35.9952H59.6813V42.6597H52.6566L46.1722 41.4889L45.7219 42.6597L51.1255 46.3522L56.0789 51.3956L51.3957 56.0788L46.3523 51.1254L42.6598 45.7218L41.489 46.1721L42.6598 52.6565V59.6812H35.9953V52.6565L37.1661 46.1721L35.9953 45.7218L32.3029 51.1254L27.2595 56.0788L22.5763 51.3956L27.5296 46.3522L32.9333 42.6597L32.483 41.4889L25.9986 42.6597H18.9739Z" fill="white"/>
</svg>
